<svg xmlns="http://www.w3.org/2000/svg" xmlns:xlink="http://www.w3.org/1999/xlink" width="500" zoomAndPan="magnify" viewBox="0 0 375 374.999991" height="500" preserveAspectRatio="xMidYMid meet" version="1.0"><defs><g/><clipPath id="66633b682e"><path d="M 145 103 L 202 103 L 202 153.980469 L 145 153.980469 Z M 145 103 " clip-rule="nonzero"/></clipPath><clipPath id="45ba247e89"><path d="M 165 78.230469 L 184 78.230469 L 184 101 L 165 101 Z M 165 78.230469 " clip-rule="nonzero"/></clipPath><clipPath id="f3552f2397"><path d="M 125.972656 109 L 145 109 L 145 132 L 125.972656 132 Z M 125.972656 109 " clip-rule="nonzero"/></clipPath><clipPath id="0a4239b2d1"><path d="M 188 92 L 206.972656 92 L 206.972656 113 L 188 113 Z M 188 92 " clip-rule="nonzero"/></clipPath><clipPath id="de7e944c02"><path d="M 191 131 L 206.972656 131 L 206.972656 142 L 191 142 Z M 191 131 " clip-rule="nonzero"/></clipPath><clipPath id="4e72153604"><path d="M 206 125 L 206.972656 125 L 206.972656 132 L 206 132 Z M 206 125 " clip-rule="nonzero"/></clipPath><clipPath id="f1681079d0"><path d="M 204 123 L 206.972656 123 L 206.972656 126 L 204 126 Z M 204 123 " clip-rule="nonzero"/></clipPath><clipPath id="fc955c1fe4"><rect x="0" width="106" y="0" height="83"/></clipPath><clipPath id="ed8f6c0c58"><path d="M 69 126.691406 L 125.984375 126.691406 L 125.984375 190.441406 L 69 190.441406 Z M 69 126.691406 " clip-rule="nonzero"/></clipPath></defs><g clip-path="url(#66633b682e)"><path fill="#f0cf65" d="M 145.90625 138.175781 C 145.808594 137.960938 145.707031 137.746094 145.621094 137.558594 C 145.707031 137.171875 145.816406 136.832031 145.855469 136.480469 C 145.90625 136.054688 146.015625 135.632812 146.257812 135.304688 C 146.839844 134.523438 147.09375 133.609375 147.40625 132.761719 C 147.601562 132.40625 148.070312 132.382812 148.175781 131.964844 C 148.066406 131.789062 147.953125 131.597656 147.835938 131.402344 C 147.820312 131.046875 148.207031 130.957031 148.332031 130.65625 C 148.382812 130.394531 148.4375 130.101562 148.515625 129.703125 C 148.71875 129.457031 148.984375 129.140625 149.253906 128.820312 C 149.300781 128.714844 149.375 128.609375 149.398438 128.496094 C 149.585938 127.554688 149.910156 126.6875 150.40625 125.847656 C 151.074219 124.71875 151.605469 123.511719 152.175781 122.328125 C 152.671875 121.304688 153.234375 120.324219 154.070312 119.539062 C 154.125 119.167969 154.179688 118.816406 154.230469 118.46875 C 154.394531 118.09375 154.714844 117.964844 155.082031 117.914062 C 155.753906 118.207031 156.054688 117.707031 156.394531 117.296875 C 156.472656 117.207031 156.550781 117.097656 156.570312 116.988281 C 156.679688 116.355469 157.128906 115.953125 157.527344 115.554688 C 157.753906 115.035156 157.871094 114.523438 158.234375 114.085938 C 158.722656 113.492188 159.089844 112.796875 159.511719 112.144531 C 159.875 111.75 160.417969 111.582031 160.738281 111.117188 C 161.003906 110.730469 161.292969 110.320312 161.664062 110.054688 C 162.484375 109.464844 163.25 108.785156 164.140625 108.304688 C 164.660156 108.027344 165.230469 107.839844 165.726562 107.636719 C 166.210938 107.617188 166.628906 107.597656 167.046875 107.585938 C 167.410156 107.578125 167.769531 107.597656 168.09375 107.773438 C 168.539062 108.019531 169.023438 107.949219 169.503906 108.027344 C 170.851562 107.542969 172.246094 107.253906 173.675781 107.222656 C 173.664062 107 173.699219 106.824219 173.644531 106.789062 C 173.246094 106.535156 172.851562 106.238281 172.410156 106.09375 C 171.105469 105.660156 169.894531 105.003906 168.5 104.5 C 168.191406 104.511719 167.746094 104.4375 167.367188 104.566406 C 166.675781 104.804688 165.957031 104.78125 165.140625 104.929688 C 164.429688 105.265625 163.621094 105.648438 162.816406 106.03125 C 161.859375 106.945312 160.804688 107.730469 159.734375 108.492188 C 158.957031 109.042969 158.207031 109.617188 157.640625 110.410156 C 157.4375 110.691406 157.121094 110.894531 156.839844 111.113281 C 156.734375 111.195312 156.609375 111.144531 156.511719 111.023438 C 156.589844 110.492188 156.847656 110.007812 157.21875 109.640625 C 157.730469 109.132812 158.09375 108.511719 158.617188 108.015625 C 159.175781 107.480469 159.71875 106.925781 160.265625 106.378906 C 160.308594 106.335938 160.355469 106.296875 160.402344 106.261719 C 160.542969 106.152344 160.671875 106 160.832031 105.945312 C 161.8125 105.613281 162.425781 104.6875 163.417969 104.371094 C 163.75 104.265625 164.03125 103.960938 164.367188 103.894531 C 165.175781 103.726562 165.945312 103.417969 166.789062 103.335938 C 168.28125 103.183594 169.613281 103.542969 170.910156 104.242188 C 171.953125 104.808594 172.996094 105.386719 174.082031 105.882812 C 174.40625 106.027344 174.722656 106.1875 175.058594 106.300781 C 176.136719 106.671875 177.128906 107.234375 178.066406 107.859375 C 179.117188 108.5625 180.28125 109.023438 181.375 109.628906 C 181.578125 109.738281 181.828125 109.777344 182.0625 109.824219 C 182.417969 109.890625 182.730469 110.050781 183.058594 110.203125 C 183.59375 110.457031 184.152344 110.703125 184.726562 110.828125 C 185.4375 110.984375 186.09375 111.242188 186.738281 111.558594 C 186.898438 111.636719 187.054688 111.738281 187.226562 111.78125 C 188.105469 112.019531 188.875 112.449219 189.554688 113.0625 C 189.722656 113.21875 189.960938 113.300781 190.167969 113.414062 C 190.320312 113.503906 190.53125 113.550781 190.621094 113.679688 C 191.136719 114.453125 191.996094 114.816406 192.652344 115.425781 C 193.300781 116.03125 194.050781 116.539062 194.75 117.09375 C 194.890625 117.203125 195.003906 117.34375 195.140625 117.484375 C 196.542969 117.699219 197.910156 118.085938 199.199219 118.71875 C 199.625 118.925781 200.078125 119.082031 200.511719 119.277344 C 200.609375 119.324219 200.675781 119.441406 200.757812 119.523438 L 200.789062 119.492188 C 199.566406 119.539062 198.445312 119.140625 197.34375 118.675781 C 196.960938 118.515625 196.589844 118.320312 196.199219 118.179688 C 196.046875 118.125 195.859375 118.167969 195.703125 118.167969 C 195.523438 118.539062 195.78125 118.761719 195.890625 119.011719 C 196.011719 119.292969 196.226562 119.546875 196.507812 119.632812 C 197.269531 119.875 197.855469 120.375 198.480469 120.835938 C 199.378906 121.496094 199.945312 122.390625 200.367188 123.394531 C 200.550781 123.828125 200.652344 124.300781 200.804688 124.808594 C 200.824219 125.53125 200.800781 126.308594 201.046875 127.0625 C 201.097656 127.226562 201.109375 127.433594 201.058594 127.59375 C 200.886719 128.132812 201.027344 128.652344 201.085938 129.179688 C 201.140625 129.652344 201.160156 130.132812 201.160156 130.609375 C 201.164062 132.34375 200.648438 133.902344 199.554688 135.25 C 199.328125 135.527344 199.082031 135.792969 198.804688 136.015625 C 198.433594 136.316406 198.046875 136.589844 197.710938 136.933594 C 197.554688 137.089844 197.292969 137.230469 197.078125 137.238281 C 196.203125 137.253906 195.484375 137.679688 194.746094 138.054688 C 194.691406 138.082031 194.632812 138.085938 194.53125 138.113281 C 194.15625 138.128906 193.742188 138.15625 193.324219 138.160156 C 192.902344 138.164062 192.488281 138.171875 192.09375 138.347656 C 191.679688 138.53125 191.273438 138.402344 190.769531 138.269531 C 190.050781 138.457031 189.226562 138.535156 188.394531 138.578125 C 187.503906 138.625 186.609375 138.75 185.742188 138.933594 C 185.269531 139.035156 184.796875 139.109375 184.332031 139.128906 C 183.019531 139.183594 181.738281 139.488281 180.433594 139.59375 C 179.882812 139.636719 179.390625 139.855469 178.894531 140.050781 C 178.167969 140.339844 177.429688 140.539062 176.675781 140.648438 C 175.769531 140.476562 174.921875 140.199219 174.199219 139.785156 C 173.144531 140.082031 172.066406 139.878906 171.179688 140.511719 C 170.679688 140.910156 170.160156 141.3125 169.851562 141.917969 C 169.742188 142.125 169.574219 142.3125 169.398438 142.46875 C 168.414062 143.339844 167.621094 144.402344 166.582031 145.21875 C 166.398438 145.367188 166.242188 145.554688 166.09375 145.738281 C 165.75 146.160156 165.351562 146.515625 164.886719 146.796875 C 164.214844 147.199219 163.660156 147.738281 163.140625 148.324219 C 162.710938 148.816406 162.175781 149.234375 161.8125 149.769531 C 161.4375 150.324219 160.859375 150.65625 160.472656 151.195312 C 160.167969 151.613281 159.667969 151.898438 159.238281 152.21875 C 158.953125 152.433594 158.628906 152.59375 158.339844 152.804688 C 157.90625 153.128906 157.464844 153.460938 156.933594 153.554688 C 156.058594 153.710938 155.234375 154.175781 154.074219 153.914062 C 153.582031 153.710938 152.867188 153.421875 152.144531 153.125 C 151.589844 152.496094 151.058594 151.855469 150.484375 151.253906 C 149.863281 150.597656 149.402344 149.839844 148.953125 149.0625 C 147.988281 147.402344 147.375 145.597656 146.714844 143.957031 C 146.375 141.6875 146.695312 139.535156 146.550781 137.398438 C 146.371094 137.394531 146.308594 137.464844 146.277344 137.601562 C 146.222656 137.835938 146.136719 138.054688 145.878906 138.148438 Z M 178.171875 110.914062 C 178.101562 110.832031 178.046875 110.730469 177.960938 110.679688 C 177.835938 110.605469 177.738281 110.660156 177.734375 110.785156 C 177.734375 110.808594 177.820312 110.851562 177.871094 110.859375 C 177.976562 110.878906 178.085938 110.878906 178.195312 110.886719 C 178.316406 111.242188 178.621094 111.234375 178.914062 111.246094 C 179.0625 111.539062 179.339844 111.578125 179.625 111.609375 C 179.679688 111.691406 179.722656 111.785156 179.785156 111.859375 C 179.8125 111.890625 179.882812 111.902344 179.929688 111.898438 C 179.972656 111.894531 180.03125 111.871094 180.050781 111.839844 C 180.097656 111.753906 180.042969 111.675781 179.914062 111.648438 C 179.8125 111.628906 179.707031 111.636719 179.601562 111.632812 C 179.464844 111.3125 179.160156 111.324219 178.886719 111.277344 C 178.742188 110.964844 178.453125 110.949219 178.171875 110.914062 Z M 180.347656 124.554688 C 180.113281 124.664062 180.039062 124.875 180.011719 125.109375 C 179.992188 125.28125 179.992188 125.453125 179.984375 125.625 C 179.566406 125.882812 179.394531 126.300781 179.273438 126.742188 C 179.226562 126.902344 179.257812 127.070312 179.425781 127.175781 C 179.847656 126.734375 179.980469 126.195312 179.957031 125.601562 C 180.128906 125.53125 180.230469 125.394531 180.253906 125.21875 C 180.289062 124.992188 180.296875 124.757812 180.316406 124.53125 C 180.722656 124.109375 180.738281 124.078125 180.46875 123.695312 C 180.257812 123.957031 180.332031 124.257812 180.347656 124.554688 Z M 150.542969 143.5625 C 150.527344 143.449219 150.515625 143.332031 150.5 143.21875 C 150.476562 143.035156 150.40625 143.003906 150.316406 143.136719 C 150.289062 143.171875 150.300781 143.261719 150.332031 143.300781 C 150.398438 143.386719 150.488281 143.460938 150.570312 143.539062 C 150.523438 143.753906 150.292969 143.933594 150.40625 144.175781 C 150.445312 144.261719 150.5625 144.34375 150.660156 144.367188 C 150.757812 144.390625 150.824219 144.277344 150.828125 144.140625 C 150.832031 143.898438 150.792969 143.679688 150.542969 143.5625 Z M 168.855469 114.136719 C 168.117188 114.53125 168.042969 114.597656 168.046875 115.066406 C 168.671875 114.882812 168.707031 114.84375 168.84375 114.128906 C 168.929688 114.0625 169.039062 114.015625 169.097656 113.929688 C 169.179688 113.8125 169.128906 113.703125 169 113.675781 C 168.976562 113.671875 168.917969 113.753906 168.902344 113.804688 C 168.875 113.914062 168.871094 114.027344 168.855469 114.136719 Z M 162.050781 138.894531 C 161.433594 139.125 161.265625 139.6875 161.078125 140.226562 C 161.054688 140.292969 161.15625 140.402344 161.199219 140.492188 C 161.25 140.464844 161.320312 140.453125 161.347656 140.410156 C 161.664062 139.9375 162.03125 139.488281 162.023438 138.875 C 162.105469 138.808594 162.199219 138.753906 162.269531 138.679688 C 162.304688 138.644531 162.3125 138.578125 162.308594 138.527344 C 162.304688 138.480469 162.277344 138.417969 162.242188 138.398438 C 162.160156 138.359375 162.089844 138.425781 162.070312 138.566406 C 162.054688 138.675781 162.054688 138.785156 162.050781 138.894531 Z M 167.070312 118.089844 C 165.996094 118.664062 165.511719 119.695312 165.042969 120.726562 C 165.003906 120.8125 165.070312 120.941406 165.089844 121.050781 C 165.1875 121.019531 165.328125 121.015625 165.371094 120.949219 C 165.914062 120.167969 166.441406 119.375 167.007812 118.539062 C 167.015625 118.421875 167.03125 118.242188 167.042969 118.066406 C 167.621094 117.847656 167.996094 117.421875 168.277344 116.894531 C 168.386719 116.683594 168.214844 117 168.1875 116.761719 C 167.476562 116.949219 167.292969 117.167969 167.070312 118.089844 Z M 152.691406 141.011719 C 152.78125 140.9375 152.898438 140.875 152.957031 140.78125 C 153.746094 139.511719 154.296875 138.15625 154.4375 136.652344 C 154.496094 136.003906 154.597656 135.363281 154.6875 134.652344 C 154.492188 134.222656 154.484375 133.691406 154.441406 133.160156 C 154.417969 132.929688 154.304688 132.703125 154.023438 132.648438 C 153.789062 132.773438 153.761719 133.019531 153.707031 133.234375 C 153.617188 133.574219 153.539062 133.921875 153.480469 134.269531 C 153.414062 134.675781 153.398438 135.09375 153.316406 135.496094 C 153.035156 136.882812 152.628906 138.246094 152.652344 139.683594 C 152.660156 139.96875 152.554688 140.257812 152.507812 140.519531 C 152.589844 140.710938 152.65625 140.875 152.722656 141.039062 C 152.640625 141.109375 152.539062 141.167969 152.480469 141.257812 C 152.394531 141.382812 152.441406 141.480469 152.574219 141.488281 C 152.59375 141.488281 152.632812 141.398438 152.644531 141.34375 C 152.667969 141.234375 152.675781 141.121094 152.691406 141.011719 Z M 156.640625 128.464844 C 156.734375 128.402344 156.875 128.363281 156.921875 128.273438 C 157.527344 127.054688 158.179688 125.851562 158.699219 124.59375 C 159.0625 123.714844 159.457031 122.863281 159.960938 122.058594 C 160.40625 121.355469 160.730469 120.597656 160.867188 119.808594 C 160.730469 119.492188 160.664062 119.199219 160.425781 118.992188 C 160.328125 119.046875 160.195312 119.070312 160.140625 119.152344 C 159.207031 120.457031 158.574219 121.921875 157.949219 123.386719 C 157.691406 123.984375 157.480469 124.601562 157.230469 125.203125 C 156.796875 126.253906 156.519531 127.332031 156.667969 128.484375 C 156.582031 128.5625 156.476562 128.621094 156.425781 128.714844 C 156.355469 128.84375 156.410156 128.949219 156.539062 128.957031 C 156.558594 128.960938 156.601562 128.863281 156.609375 128.808594 C 156.628906 128.695312 156.632812 128.578125 156.640625 128.464844 Z M 198.5625 130.699219 C 198.519531 130.121094 198.175781 129.613281 197.882812 129.117188 C 197.269531 128.082031 197.019531 126.902344 196.492188 125.835938 C 196.394531 125.050781 196.019531 124.367188 195.703125 123.664062 C 195.261719 122.691406 194.792969 121.730469 194.375 120.855469 C 193.894531 120.347656 193.46875 119.949219 192.824219 119.859375 C 192.601562 119.828125 192.402344 119.652344 192.191406 119.542969 C 191.765625 119.324219 191.339844 119.113281 190.917969 118.890625 C 190.339844 118.582031 189.726562 118.359375 189.109375 118.144531 C 188.980469 118.097656 188.871094 118.128906 188.789062 118.234375 C 188.8125 118.34375 188.800781 118.476562 188.863281 118.546875 C 189.496094 119.261719 190.109375 119.992188 190.550781 120.84375 C 190.632812 121 190.761719 121.132812 190.875 121.269531 C 191.777344 122.386719 192.507812 123.597656 192.980469 124.96875 C 193.304688 125.925781 193.699219 126.859375 194.050781 127.769531 C 194.761719 128.695312 195.59375 129.453125 196.488281 130.148438 C 196.917969 130.488281 197.371094 130.75 197.886719 130.914062 C 198.121094 130.992188 198.351562 130.957031 198.5625 130.699219 Z M 182.386719 124.226562 C 182.121094 124.347656 181.941406 124.519531 181.890625 124.757812 C 181.6875 125.75 181.304688 126.691406 181.019531 127.660156 C 180.933594 127.941406 180.789062 128.207031 180.703125 128.492188 C 180.558594 128.972656 180.605469 129.453125 180.894531 129.859375 C 181.304688 130.445312 181.707031 131.046875 182.203125 131.550781 C 182.703125 132.050781 183.070312 132.695312 183.703125 133.035156 C 184.101562 132.894531 184.289062 132.589844 184.46875 132.28125 C 185.128906 131.144531 185.613281 129.929688 186.042969 128.691406 C 186.136719 128.425781 186.320312 128.15625 186.183594 127.785156 C 185.859375 127.433594 185.511719 127.027344 185.132812 126.648438 C 184.378906 125.886719 183.613281 125.136719 182.835938 124.402344 C 182.722656 124.292969 182.519531 124.273438 182.386719 124.226562 Z M 157.644531 142.492188 C 158.019531 141.484375 158.136719 140.375 158.085938 139.234375 C 158.050781 138.460938 158.082031 137.683594 158.066406 136.910156 C 158.050781 136.140625 158.015625 135.367188 157.984375 134.597656 C 157.984375 134.558594 157.933594 134.523438 157.851562 134.421875 C 157.039062 135.511719 156.953125 136.886719 156.3125 138.0625 C 155.921875 138.371094 155.5 138.699219 155.089844 139.015625 C 154.859375 139.644531 154.714844 140.304688 154.386719 140.855469 C 154.050781 141.429688 153.820312 142.015625 153.648438 142.648438 C 153.480469 143.269531 152.839844 143.679688 152.820312 144.484375 C 152.925781 144.566406 153.054688 144.710938 153.214844 144.777344 C 154.332031 145.230469 155.050781 145.015625 155.675781 144.390625 C 156.300781 143.757812 156.953125 143.152344 157.644531 142.492188 Z M 188.078125 129.359375 C 187.992188 129.394531 187.921875 129.402344 187.890625 129.445312 C 187.785156 129.582031 187.636719 129.71875 187.605469 129.878906 C 187.476562 130.476562 187.113281 130.964844 186.90625 131.519531 C 186.695312 132.082031 186.410156 132.59375 186.121094 133.113281 C 185.894531 133.523438 185.570312 133.898438 185.535156 134.414062 C 186.730469 134.800781 187.941406 135.050781 189.101562 134.933594 C 189.601562 135.097656 189.992188 135.230469 190.328125 135.34375 C 191.144531 135.003906 191.144531 135.003906 192.023438 133.695312 C 192.070312 133.390625 192.121094 133.035156 192.171875 132.683594 C 192.210938 132.375 192.171875 132.089844 191.890625 131.769531 C 190.582031 131.132812 189.292969 130.285156 188.078125 129.359375 Z M 170.007812 125.105469 C 169.953125 125.578125 169.792969 126.988281 169.757812 127.273438 C 170.335938 129.011719 170.335938 129.011719 170.800781 129.339844 C 171.519531 128.03125 171.972656 126.625 172.371094 125.203125 C 172.625 124.292969 172.871094 123.371094 172.820312 122.398438 C 172.792969 121.867188 172.875 121.335938 173.015625 120.8125 C 173.109375 120.476562 173.148438 120.113281 173.160156 119.761719 C 173.183594 119.109375 173.171875 118.457031 173.164062 117.800781 C 173.164062 117.445312 173.171875 117.085938 172.964844 116.769531 C 172.667969 116.5625 172.363281 116.386719 171.910156 116.453125 C 171.78125 116.566406 171.609375 116.71875 171.425781 116.878906 C 171.390625 117.316406 171.332031 117.726562 171.328125 118.140625 C 171.316406 118.910156 171.328125 119.683594 171.347656 120.457031 C 171.359375 120.878906 171.261719 121.273438 171.175781 121.683594 C 170.925781 122.851562 170.5625 123.972656 170.007812 125.105469 Z M 182.324219 117.894531 C 182.519531 118.492188 182.640625 119.113281 182.65625 119.761719 C 182.671875 120.410156 182.804688 121.050781 182.871094 121.589844 C 183.125 122.203125 183.707031 122.386719 183.953125 122.886719 C 184.21875 123.4375 184.875 123.59375 185.226562 124.105469 C 185.515625 124.535156 185.988281 124.839844 186.386719 125.191406 C 186.476562 125.265625 186.589844 125.332031 186.703125 125.351562 C 186.796875 125.367188 186.90625 125.3125 187.058594 125.277344 C 187.171875 124.460938 187.195312 123.625 186.941406 122.828125 C 186.652344 121.921875 186.207031 121.066406 185.5625 120.355469 C 184.808594 119.519531 184.042969 118.6875 183.15625 117.984375 C 183.023438 117.875 182.859375 117.785156 182.695312 117.738281 C 182.609375 117.71875 182.492188 117.820312 182.324219 117.894531 Z M 167.277344 121.175781 C 167.128906 121.285156 166.949219 121.355469 166.859375 121.488281 C 166.59375 121.878906 166.363281 122.296875 166.113281 122.703125 C 164.8125 124.796875 164.09375 126.261719 163.3125 128.445312 C 163.152344 128.894531 162.992188 129.34375 162.886719 129.804688 C 162.699219 130.621094 162.679688 131.445312 162.925781 132.199219 C 163.167969 132.332031 163.335938 132.296875 163.472656 132.171875 C 163.558594 132.09375 163.636719 131.992188 163.675781 131.882812 C 164.3125 130.222656 165.074219 128.605469 165.617188 126.90625 C 165.6875 126.683594 165.816406 126.480469 165.917969 126.265625 C 166.046875 126 166.230469 125.746094 166.292969 125.464844 C 166.488281 124.585938 166.910156 123.796875 167.234375 122.964844 C 167.277344 122.855469 167.296875 122.738281 167.332031 122.613281 C 167.316406 122.15625 167.464844 121.679688 167.277344 121.175781 Z M 155.851562 150.660156 C 156.117188 150.660156 156.292969 150.679688 156.46875 150.65625 C 156.640625 150.628906 156.839844 150.605469 156.96875 150.5 C 157.394531 150.152344 157.925781 150.050781 158.464844 149.804688 C 158.949219 149.285156 159.480469 148.730469 159.988281 148.15625 C 160.082031 148.046875 160.074219 147.84375 160.109375 147.6875 C 159.832031 147.496094 159.574219 147.347656 159.355469 147.152344 C 159.09375 146.917969 158.867188 146.640625 158.617188 146.390625 C 158.441406 146.210938 158.238281 146.117188 158.003906 146.1875 C 157.363281 146.742188 156.738281 147.28125 156.167969 147.773438 C 155.398438 148.105469 154.695312 148.410156 154 148.710938 C 154.054688 149.105469 154.207031 149.417969 154.484375 149.726562 C 154.878906 149.996094 155.316406 150.296875 155.851562 150.660156 Z M 179.472656 131.5 C 179.21875 131.539062 179.0625 131.703125 178.941406 131.914062 C 178.464844 132.734375 177.96875 133.542969 177.320312 134.238281 C 176.59375 135.015625 175.828125 135.753906 174.910156 136.316406 C 174.851562 136.355469 174.855469 136.5 174.832031 136.597656 C 175.257812 136.742188 175.65625 136.679688 176.019531 136.449219 C 176.429688 136.1875 176.851562 135.996094 177.347656 136.015625 C 177.464844 136.019531 177.585938 136 177.699219 135.972656 C 179.1875 135.589844 180.671875 135.207031 182.15625 134.816406 C 182.1875 134.808594 182.199219 134.734375 182.238281 134.652344 C 181.378906 133.632812 180.507812 132.597656 179.632812 131.566406 C 179.601562 131.527344 179.527344 131.519531 179.472656 131.5 Z M 176.984375 127.585938 C 176.859375 127.316406 176.742188 127.042969 176.605469 126.78125 C 176.492188 126.574219 176.351562 126.378906 176.222656 126.183594 C 176.097656 125.992188 175.761719 126.023438 175.628906 126.238281 C 175.597656 126.289062 175.546875 126.328125 175.523438 126.378906 C 175.226562 127.023438 174.949219 127.679688 174.640625 128.320312 C 174.332031 128.953125 173.867188 129.511719 173.785156 130.257812 C 173.761719 130.476562 173.609375 130.695312 173.476562 130.886719 C 172.964844 131.632812 172.65625 132.457031 172.445312 133.273438 C 172.550781 134.015625 172.558594 134.011719 172.945312 134.402344 C 173 134.382812 173.074219 134.375 173.101562 134.339844 C 173.359375 134.015625 173.613281 133.691406 173.859375 133.359375 C 174.601562 132.359375 175.179688 131.253906 175.800781 130.179688 C 176.273438 129.363281 176.59375 128.464844 176.984375 127.585938 Z M 165.753906 137.546875 C 165.101562 137.539062 164.910156 137.605469 164.734375 137.894531 C 164.464844 138.351562 164.277344 138.886719 163.921875 139.261719 C 163.140625 140.089844 162.644531 141.105469 161.96875 142 C 161.683594 142.371094 161.449219 142.785156 161.417969 143.269531 C 161.570312 143.550781 161.753906 143.769531 162.101562 143.753906 C 162.914062 143.378906 163.578125 142.8125 164.238281 142.214844 C 164.742188 141.757812 164.9375 141.121094 165.363281 140.628906 C 165.871094 140.039062 166.199219 139.339844 166.433594 138.597656 C 166.464844 138.496094 166.425781 138.378906 166.425781 138.367188 C 166.15625 138.035156 165.929688 137.761719 165.753906 137.546875 Z M 167.636719 136.269531 C 167.929688 135.753906 168.148438 135.261719 168.460938 134.839844 C 169.109375 133.953125 169.398438 132.941406 169.648438 131.863281 C 169.449219 131.261719 169.261719 130.640625 169.035156 130.035156 C 168.984375 129.894531 168.792969 129.804688 168.679688 129.703125 C 168.414062 129.816406 168.257812 130.011719 168.195312 130.238281 C 167.742188 131.84375 167 133.324219 166.246094 134.800781 C 166.167969 134.957031 166.117188 135.128906 166.058594 135.296875 C 165.941406 135.621094 166.132812 136.03125 166.457031 136.191406 C 166.792969 136.355469 167.140625 136.359375 167.636719 136.269531 Z M 194.261719 133.144531 C 193.792969 133.503906 193.804688 133.511719 193.570312 134.128906 C 192.980469 135.652344 192.972656 135.648438 193.042969 136.148438 C 193.382812 136.109375 194.777344 135.953125 195.214844 135.90625 C 195.617188 135.429688 196.246094 135.210938 196.824219 134.914062 C 197.042969 134.804688 197.222656 134.660156 197.355469 134.457031 C 197.449219 134.316406 197.417969 134.019531 197.285156 133.984375 C 196.714844 133.828125 196.164062 133.664062 195.652344 133.335938 C 195.25 133.082031 194.746094 133.054688 194.261719 133.144531 Z M 167.644531 125.886719 C 167.253906 126.0625 167.40625 126.511719 167.15625 126.757812 C 166.847656 127.058594 166.707031 127.445312 166.699219 127.886719 C 166.695312 128.058594 166.625 128.234375 166.550781 128.394531 C 165.769531 130.121094 165.277344 131.972656 164.257812 133.503906 C 164.230469 133.886719 164.171875 134.183594 164.378906 134.441406 C 164.488281 134.417969 164.65625 134.429688 164.703125 134.359375 C 164.964844 133.964844 165.234375 133.570312 165.4375 133.144531 C 165.867188 132.230469 166.207031 131.273438 166.675781 130.382812 C 167.179688 129.429688 167.433594 128.394531 167.761719 127.382812 C 167.867188 127.058594 168.007812 126.707031 167.890625 126.28125 C 167.832031 126.183594 167.738281 126.035156 167.644531 125.886719 Z M 177.960938 125.113281 C 178.160156 124.945312 178.289062 124.886719 178.328125 124.792969 C 178.605469 124.078125 178.890625 123.367188 179.113281 122.636719 C 179.234375 122.25 179.257812 121.828125 179.285156 121.417969 C 179.296875 121.253906 179.214844 121.078125 179.171875 120.914062 C 178.878906 120.605469 178.59375 120.308594 178.316406 120.019531 C 178.195312 120.023438 178.085938 120.03125 177.945312 120.035156 C 177.703125 120.746094 177.449219 121.46875 177.210938 122.191406 C 177.078125 122.589844 177.039062 122.996094 177.152344 123.488281 C 177.378906 123.945312 177.640625 124.46875 177.960938 125.113281 Z M 163.859375 113.828125 C 163.128906 114.726562 162.464844 115.472656 161.886719 116.285156 C 161.589844 116.703125 161.332031 117.195312 161.414062 117.863281 C 161.503906 118.039062 161.636719 118.296875 161.777344 118.550781 C 161.796875 118.582031 161.867188 118.582031 161.921875 118.601562 C 162.355469 118.371094 162.628906 117.984375 162.816406 117.550781 C 163.128906 116.84375 163.523438 116.195312 163.949219 115.554688 C 164.011719 115.457031 164.046875 115.34375 164.09375 115.234375 C 164.230469 114.28125 164.230469 114.28125 163.859375 113.828125 Z M 178.933594 116.964844 C 179.539062 117.757812 180.113281 118.515625 180.691406 119.265625 C 180.722656 119.304688 180.832031 119.328125 180.855469 119.308594 C 180.933594 119.238281 181.03125 119.152344 181.039062 119.0625 C 181.0625 118.824219 181.089844 118.574219 181.035156 118.351562 C 180.738281 117.128906 180.324219 115.949219 179.492188 114.972656 C 179.386719 114.847656 179.203125 114.792969 178.90625 114.613281 C 178.90625 115.488281 178.792969 116.242188 178.933594 116.964844 Z M 162.03125 134.988281 C 161.765625 134.433594 161.535156 133.957031 161.300781 133.476562 C 161.277344 133.425781 161.234375 133.378906 161.191406 133.34375 C 161.152344 133.308594 161.082031 133.257812 161.050781 133.269531 C 160.949219 133.308594 160.78125 133.367188 160.773438 133.433594 C 160.621094 134.488281 160.449219 135.535156 160.234375 136.578125 C 160.140625 137.03125 160.21875 137.523438 160.238281 137.996094 C 160.242188 138.078125 160.34375 138.15625 160.402344 138.238281 C 161.078125 137.28125 161.617188 136.210938 162.03125 134.988281 Z M 188.6875 126.777344 C 188.734375 127.148438 188.925781 127.449219 189.210938 127.667969 C 190.011719 128.273438 190.824219 128.863281 191.644531 129.449219 C 191.703125 129.492188 191.851562 129.421875 191.949219 129.386719 C 191.976562 129.378906 191.992188 129.289062 191.980469 129.242188 C 191.890625 128.816406 191.597656 128.515625 191.3125 128.21875 C 190.863281 127.753906 190.332031 127.355469 190.121094 126.703125 C 189.789062 126.394531 189.585938 125.933594 189.097656 125.800781 C 188.878906 126.101562 188.734375 126.417969 188.6875 126.777344 Z M 165.820312 108.789062 C 165.15625 108.875 164.871094 109.3125 164.4375 109.507812 C 163.613281 109.871094 162.925781 110.433594 162.351562 111.128906 C 162.011719 111.542969 161.597656 111.875 161.144531 112.164062 C 161.039062 112.230469 161.0625 112.371094 161.140625 112.464844 C 162.296875 112.074219 162.425781 112.011719 162.980469 111.539062 C 163.746094 110.882812 164.511719 110.234375 165.265625 109.5625 C 165.472656 109.382812 165.75 109.242188 165.820312 108.789062 Z M 151.808594 148.730469 C 151.761719 148.664062 151.53125 148.6875 151.464844 148.742188 C 151.398438 148.796875 151.355469 148.957031 151.382812 149.042969 C 151.707031 149.96875 152.417969 150.601562 153.078125 151.28125 C 153.628906 151.851562 154.265625 152.234375 155.03125 152.34375 C 155.242188 152.292969 155.382812 152.207031 155.402344 151.996094 C 155.035156 151.421875 154.347656 151.589844 153.742188 151.273438 C 153.449219 150.972656 153.035156 150.625 152.722656 150.203125 C 152.371094 149.738281 152.125 149.195312 151.808594 148.730469 Z M 175.835938 120.351562 C 176.339844 119.609375 176.699219 119.113281 176.65625 118.460938 C 176.375 117.9375 176.070312 117.515625 175.574219 117.261719 C 175.542969 117.246094 175.480469 117.28125 175.417969 117.296875 C 175.128906 118.273438 175.65625 119.128906 175.835938 120.351562 Z M 189.121094 116.054688 C 189.050781 115.960938 188.996094 115.839844 188.90625 115.78125 C 188.355469 115.429688 187.746094 115.195312 187.195312 114.828125 C 186.664062 114.476562 186.03125 114.269531 185.515625 113.867188 C 185.460938 113.828125 185.300781 113.910156 185.195312 113.953125 C 185.175781 113.960938 185.167969 114.058594 185.191406 114.097656 C 185.476562 114.566406 185.855469 114.984375 186.382812 115.113281 C 187.261719 115.335938 188.015625 115.816406 188.828125 116.171875 C 188.894531 116.203125 189.023438 116.097656 189.121094 116.054688 Z M 171.652344 109.351562 C 172.316406 109.421875 172.964844 109.441406 173.601562 109.515625 C 174.238281 109.585938 174.851562 109.847656 175.472656 110.019531 C 175.527344 110.035156 175.59375 110.019531 175.652344 110.027344 C 175.804688 110.054688 175.832031 109.984375 175.796875 109.632812 C 174.972656 109.355469 174.136719 109.078125 173.320312 108.804688 C 173.007812 108.910156 172.726562 109 172.449219 109.097656 C 172.195312 109.1875 171.871094 109.023438 171.652344 109.351562 Z M 172.238281 113.527344 C 171.910156 113.761719 171.574219 113.988281 171.253906 114.234375 C 171.007812 114.425781 171.046875 114.785156 171.320312 115.117188 C 171.792969 115.222656 172.210938 114.957031 172.675781 114.933594 C 172.808594 114.394531 172.828125 113.898438 172.238281 113.527344 Z M 161.847656 145.527344 C 161.421875 145.371094 160.996094 145.191406 160.554688 145.066406 C 160.410156 145.023438 160.230469 145.117188 160.070312 145.148438 C 160.132812 145.589844 160.195312 145.992188 160.511719 146.359375 C 160.675781 146.429688 160.886719 146.523438 161.078125 146.605469 C 161.601562 146.425781 161.882812 146.113281 161.847656 145.527344 Z M 169.796875 120.15625 C 169.707031 120.226562 169.578125 120.277344 169.535156 120.367188 C 169.234375 121.011719 169.027344 121.6875 168.894531 122.382812 C 168.839844 122.667969 168.824219 122.972656 169.042969 123.265625 C 169.171875 123.148438 169.367188 123.054688 169.40625 122.917969 C 169.570312 122.351562 169.667969 121.769531 169.828125 121.203125 C 169.917969 120.878906 169.941406 120.5 169.796875 120.15625 Z M 177.957031 129.472656 C 177.261719 130.222656 176.78125 131.101562 176.449219 132.066406 C 176.4375 132.105469 176.492188 132.167969 176.519531 132.226562 C 176.617188 132.207031 176.753906 132.226562 176.808594 132.167969 C 177.429688 131.507812 177.8125 130.699219 178.140625 129.867188 C 178.195312 129.730469 178.167969 129.535156 177.957031 129.472656 Z M 176.957031 113.613281 C 176.730469 113.515625 176.550781 113.546875 176.460938 113.710938 C 176.347656 113.910156 176.28125 114.136719 176.214844 114.304688 C 176.335938 114.703125 176.414062 115.050781 176.554688 115.371094 C 176.609375 115.5 176.792969 115.578125 176.972656 115.71875 C 177.207031 114.953125 177.125 114.269531 176.957031 113.613281 Z M 174 125.089844 C 174.519531 124.488281 174.765625 123.910156 174.851562 123.261719 C 174.863281 123.167969 174.789062 123.023438 174.710938 122.964844 C 174.644531 122.914062 174.511719 122.953125 174.304688 122.953125 C 174.269531 123.613281 173.703125 124.179688 174 125.089844 Z M 168.53125 109.964844 C 168.074219 110.011719 167.675781 110.210938 167.261719 110.425781 C 167.609375 110.824219 167.648438 110.875 167.828125 110.867188 C 168.058594 110.859375 168.3125 110.855469 168.519531 110.765625 C 168.652344 110.707031 168.773438 110.515625 168.808594 110.363281 C 168.851562 110.183594 168.714844 110.042969 168.53125 109.964844 Z M 184.429688 136.898438 C 184.421875 136.695312 184.300781 136.578125 184.113281 136.535156 C 183.933594 136.488281 183.746094 136.53125 183.640625 136.683594 C 183.523438 136.855469 183.28125 137.015625 183.480469 137.277344 C 183.878906 137.34375 184.152344 137.109375 184.429688 136.898438 Z M 166.175781 112.90625 C 166.535156 112.816406 166.746094 112.550781 166.917969 112.253906 C 166.96875 112.164062 166.984375 112.023438 166.957031 111.929688 C 166.898438 111.738281 166.726562 111.726562 166.550781 111.75 C 166.003906 112.472656 165.996094 112.472656 166.175781 112.90625 Z M 153.429688 147.125 C 153.859375 146.929688 154.175781 146.785156 154.492188 146.636719 C 154.507812 146.628906 154.503906 146.570312 154.507812 146.535156 C 154.105469 146.453125 153.707031 146.378906 153.304688 146.515625 C 153.183594 146.554688 153.121094 146.667969 153.167969 146.796875 C 153.203125 146.890625 153.292969 146.960938 153.429688 147.125 Z M 171.179688 135.523438 C 171.082031 135.585938 170.980469 135.640625 170.890625 135.710938 C 170.847656 135.746094 170.820312 135.804688 170.796875 135.855469 C 170.707031 136.027344 170.792969 136.25 170.964844 136.25 C 171.066406 136.25 171.214844 136.199219 171.261719 136.121094 C 171.394531 135.914062 171.40625 135.695312 171.179688 135.523438 Z M 163.375 136.679688 C 163.296875 136.625 163.246094 136.558594 163.214844 136.566406 C 163.027344 136.617188 162.917969 136.761719 162.875 136.9375 C 162.851562 137.03125 162.90625 137.148438 162.921875 137.253906 C 163.015625 137.210938 163.140625 137.191406 163.1875 137.121094 C 163.277344 136.988281 163.316406 136.824219 163.375 136.679688 Z M 189.878906 116.480469 C 190.078125 116.652344 190.269531 116.683594 190.46875 116.480469 C 190.269531 116.332031 190.078125 116.261719 189.878906 116.480469 Z M 178.867188 137.691406 C 179.082031 137.671875 179.089844 137.617188 178.886719 137.558594 C 178.84375 137.546875 178.78125 137.589844 178.726562 137.609375 C 178.773438 137.636719 178.820312 137.664062 178.867188 137.691406 Z M 174.167969 113.035156 C 174.140625 112.996094 174.117188 112.953125 174.089844 112.914062 C 174.054688 112.949219 174 112.980469 173.992188 113.015625 C 173.976562 113.152344 174.027344 113.214844 174.117188 113.164062 C 174.148438 113.148438 174.152344 113.082031 174.167969 113.035156 Z M 169.941406 138.4375 C 169.984375 138.414062 170.03125 138.394531 170.074219 138.371094 C 170.039062 138.339844 170.003906 138.285156 169.964844 138.28125 C 169.824219 138.261719 169.761719 138.3125 169.808594 138.394531 C 169.824219 138.425781 169.894531 138.421875 169.941406 138.4375 Z M 152.597656 125.253906 C 152.574219 125.066406 152.523438 125.058594 152.46875 125.238281 C 152.457031 125.273438 152.5 125.328125 152.515625 125.378906 C 152.542969 125.335938 152.570312 125.292969 152.597656 125.253906 Z M 154.382812 131.699219 C 154.363281 131.660156 154.339844 131.617188 154.320312 131.574219 C 154.289062 131.601562 154.234375 131.621094 154.226562 131.652344 C 154.203125 131.78125 154.246094 131.855469 154.335938 131.832031 C 154.359375 131.824219 154.367188 131.746094 154.382812 131.699219 Z M 154.382812 131.699219 " fill-opacity="1" fill-rule="nonzero"/></g><path fill="#f0cf65" d="M 158.738281 93.355469 C 158.894531 94.824219 158.339844 96.027344 157.902344 97.257812 C 157.84375 97.425781 157.753906 97.582031 157.675781 97.742188 C 157.335938 98.4375 157.007812 99.144531 156.648438 99.828125 C 156.289062 100.511719 156.160156 101.300781 155.664062 101.917969 C 155.589844 102.488281 155.214844 102.875 154.867188 103.285156 C 154.714844 103.464844 154.597656 103.679688 154.5 103.890625 C 154.0625 104.847656 153.425781 105.570312 152.402344 105.957031 C 151.796875 106.183594 151.285156 106.621094 150.628906 106.757812 C 150.046875 106.878906 149.476562 107.046875 148.8125 107.21875 C 147.898438 107.015625 146.90625 106.824219 145.925781 106.574219 C 145.53125 106.476562 145.164062 106.257812 144.738281 106.070312 C 144.585938 106.199219 144.410156 106.339844 144.242188 106.476562 C 143.976562 106.523438 143.753906 106.421875 143.625 106.214844 C 143.3125 105.695312 142.90625 105.273438 142.453125 104.964844 C 142.046875 104.308594 141.671875 103.703125 141.296875 103.097656 C 141.042969 102.6875 140.824219 102.277344 140.800781 101.773438 C 140.789062 101.546875 140.6875 101.3125 140.585938 101.101562 C 140.046875 100.015625 139.839844 98.867188 139.785156 97.652344 C 139.722656 96.28125 139.800781 94.914062 139.808594 93.5 C 140.019531 92.863281 140.21875 92.175781 140.484375 91.515625 C 140.792969 90.746094 141.179688 90.003906 141.507812 89.238281 C 141.699219 88.789062 141.980469 88.417969 142.332031 88.085938 C 142.808594 87.636719 143.261719 87.160156 143.765625 86.742188 C 144.269531 86.328125 144.820312 85.972656 145.441406 85.523438 C 145.695312 85.488281 146.050781 85.457031 146.398438 85.394531 C 146.691406 85.339844 146.972656 85.253906 147.296875 85.175781 C 147.671875 85.261719 148.078125 85.351562 148.484375 85.441406 C 149.902344 85.765625 151.140625 86.445312 152.253906 87.359375 C 152.992188 87.96875 153.84375 88.417969 154.511719 89.113281 C 154.628906 89.234375 154.804688 89.335938 154.96875 89.375 C 155.402344 89.476562 155.710938 89.753906 156.015625 90.035156 C 156.542969 90.519531 157.039062 91.039062 157.574219 91.507812 C 158.132812 91.996094 158.511719 92.585938 158.738281 93.355469 Z M 144.832031 102.195312 C 144.941406 102.492188 145.074219 102.824219 145.179688 103.164062 C 145.324219 103.636719 145.636719 103.992188 145.964844 104.339844 C 146.40625 104.800781 147.054688 104.933594 147.605469 104.660156 C 147.917969 104.5 148.222656 104.304688 148.492188 104.078125 C 148.601562 103.988281 148.605469 103.773438 148.652344 103.625 C 148.511719 103.539062 148.414062 103.476562 148.3125 103.417969 C 148.261719 103.390625 148.199219 103.378906 148.144531 103.355469 C 147.226562 102.890625 146.703125 102.148438 146.589844 101.121094 C 146.558594 100.824219 146.542969 100.523438 146.472656 100.238281 C 146.398438 99.945312 146.40625 99.664062 146.441406 99.363281 C 146.519531 98.65625 146.582031 97.941406 146.578125 97.230469 C 146.570312 95.890625 146.894531 94.640625 147.464844 93.441406 C 147.925781 92.472656 148.386719 91.507812 148.785156 90.671875 C 149.101562 90.207031 149.539062 90.042969 149.667969 89.613281 C 149.527344 89.441406 149.34375 89.457031 149.199219 89.5625 C 148.613281 89.976562 148.117188 90.492188 147.671875 91.054688 C 147.269531 91.5625 145.757812 94.382812 145.683594 95.03125 C 145.59375 95.828125 145.167969 96.484375 144.878906 97.382812 C 144.859375 98.105469 144.832031 99 144.816406 99.890625 C 144.8125 100.125 144.832031 100.367188 144.875 100.597656 C 144.921875 100.828125 145.015625 101.050781 145.074219 101.242188 C 144.992188 101.570312 144.917969 101.859375 144.832031 102.195312 Z M 142.894531 98.097656 C 142.953125 97.949219 143.019531 97.785156 143.078125 97.621094 C 143.578125 96.289062 143.890625 94.882812 144.65625 93.65625 C 144.75 93.511719 144.792969 93.328125 144.835938 93.15625 C 144.917969 92.800781 145.105469 92.507812 145.308594 92.207031 C 145.734375 91.566406 146.117188 90.898438 146.515625 90.242188 C 146.589844 90.117188 146.550781 90.003906 146.429688 89.925781 C 146.375 89.9375 146.308594 89.929688 146.273438 89.960938 C 145.503906 90.609375 144.734375 91.257812 144.011719 91.871094 C 143.371094 92.796875 142.933594 93.773438 142.410156 94.644531 C 142.234375 95.578125 142.226562 96.46875 142.328125 97.359375 C 142.351562 97.535156 142.398438 97.710938 142.472656 97.871094 C 142.542969 98.019531 142.664062 98.148438 142.894531 98.097656 Z M 152.152344 92.042969 C 151.972656 92.148438 151.847656 92.183594 151.769531 92.265625 C 151.40625 92.660156 151.058594 93.066406 150.691406 93.480469 C 150.539062 94.492188 150.234375 95.449219 149.777344 96.363281 C 149.648438 96.625 149.585938 96.921875 149.523438 97.210938 C 149.511719 97.277344 149.632812 97.371094 149.691406 97.449219 C 150.324219 97.085938 150.632812 96.394531 151.203125 95.953125 C 151.765625 95.519531 152.492188 95.324219 152.917969 94.828125 C 153.132812 94.066406 152.917969 93.441406 152.71875 92.816406 C 152.628906 92.527344 152.515625 92.253906 152.152344 92.042969 Z M 150.007812 87.027344 C 148.234375 85.71875 146.488281 85.875 144.597656 87.253906 C 144.25 87.617188 143.761719 88.128906 143.277344 88.644531 C 143.242188 88.683594 143.222656 88.765625 143.242188 88.808594 C 143.296875 88.945312 143.421875 88.996094 143.539062 88.910156 C 144.253906 88.394531 144.960938 87.863281 145.640625 87.355469 C 146.398438 87.234375 147.125 87.144531 147.808594 87.339844 C 148.398438 87.507812 148.980469 87.28125 149.5625 87.460938 C 149.769531 87.523438 149.980469 87.308594 150.007812 87.027344 Z M 148.585938 100.023438 C 148.550781 100.195312 148.496094 100.316406 148.515625 100.421875 C 148.585938 100.898438 148.808594 101.304688 149.09375 101.683594 C 149.203125 101.835938 149.566406 101.890625 149.738281 101.808594 C 150.121094 101.621094 150.421875 101.324219 150.628906 100.976562 C 151.019531 100.328125 151.410156 99.664062 151.566406 98.90625 C 151.589844 98.808594 151.511719 98.691406 151.429688 98.410156 C 150.667969 99.386719 149.523438 99.542969 148.585938 100.023438 Z M 155.59375 91.769531 C 155.867188 92.574219 156.09375 93.242188 156.316406 93.890625 C 156.390625 94.324219 156.015625 94.6875 156.179688 95.109375 C 156.367188 95.335938 156.496094 95.617188 156.8125 95.703125 C 157.292969 95.398438 157.304688 95.40625 157.625 94.375 C 157.378906 93.707031 157.113281 92.992188 156.875 92.335938 C 156.53125 91.988281 156.226562 91.726562 155.59375 91.769531 Z M 153.992188 101.664062 C 154.597656 100.828125 155.035156 99.933594 155.394531 99 C 155.664062 98.308594 155.664062 97.652344 155.445312 96.730469 C 155.300781 96.839844 155.089844 96.914062 155.050781 97.039062 C 154.65625 98.328125 154.429688 99.664062 153.835938 100.890625 C 153.765625 101.035156 153.789062 101.238281 153.804688 101.410156 C 153.8125 101.488281 153.910156 101.554688 153.992188 101.664062 Z M 144.632812 89.21875 C 144.640625 89.332031 144.605469 89.476562 144.664062 89.539062 C 144.71875 89.605469 144.910156 89.648438 144.960938 89.605469 C 145.554688 89.125 146.152344 88.660156 146.90625 88.449219 C 146.984375 88.425781 147.046875 88.269531 147.078125 88.164062 C 147.109375 88.050781 146.847656 87.914062 146.679688 87.933594 C 146.382812 87.972656 146.105469 88.050781 145.867188 88.238281 C 145.457031 88.566406 145.042969 88.894531 144.632812 89.21875 Z M 152.851562 101.84375 C 152.515625 102.246094 152.175781 102.644531 151.847656 103.054688 C 151.78125 103.136719 151.746094 103.253906 151.71875 103.363281 C 151.707031 103.402344 151.75 103.46875 151.789062 103.5 C 151.820312 103.527344 151.890625 103.546875 151.921875 103.527344 C 152.390625 103.261719 152.738281 102.871094 152.976562 102.398438 C 153.0625 102.230469 153.128906 101.976562 152.851562 101.84375 Z M 143.996094 90.390625 C 143.953125 90.367188 143.894531 90.308594 143.871094 90.320312 C 143.660156 90.421875 143.503906 90.578125 143.492188 90.828125 C 143.492188 90.867188 143.546875 90.949219 143.578125 90.949219 C 143.832031 90.972656 144.054688 90.664062 143.996094 90.390625 Z M 143.996094 90.390625 " fill-opacity="1" fill-rule="nonzero"/><g clip-path="url(#45ba247e89)"><path fill="#f0cf65" d="M 181.457031 80.035156 C 181.847656 80.664062 182.339844 81.285156 182.640625 81.988281 C 182.9375 82.679688 183.28125 83.375 183.277344 84.191406 C 183.273438 84.835938 183.488281 85.476562 183.546875 86.125 C 183.609375 86.777344 183.597656 87.4375 183.617188 88.089844 C 183.621094 88.152344 183.617188 88.214844 183.636719 88.269531 C 184.117188 89.402344 183.722656 90.5 183.46875 91.59375 C 183.269531 92.460938 182.992188 93.308594 182.714844 94.289062 C 182.589844 94.613281 182.132812 94.886719 182.042969 95.394531 C 182.003906 95.613281 181.84375 95.816406 181.710938 96.011719 C 181.3125 96.605469 180.90625 97.191406 180.429688 97.882812 C 179.671875 98.445312 178.816406 99.085938 178.058594 99.648438 C 177.285156 99.808594 176.648438 99.953125 176.003906 100.070312 C 175.464844 100.167969 174.933594 100.125 174.429688 99.894531 C 173.996094 99.695312 173.5625 99.5 173.105469 99.292969 C 173.011719 99.117188 173.273438 99.066406 173.277344 98.820312 C 172.921875 98.039062 172.292969 97.324219 171.824219 96.480469 C 171.507812 96.316406 171.195312 96.152344 170.894531 96 C 170.726562 96.128906 170.585938 96.234375 170.445312 96.339844 C 170 96.242188 169.851562 95.777344 169.492188 95.574219 C 169.234375 95.425781 169.011719 95.207031 168.695312 95.195312 C 167.925781 95.164062 167.347656 94.785156 166.863281 94.214844 C 166.75 94.078125 166.605469 93.96875 166.480469 93.855469 C 166.324219 93.449219 166.152344 93.070312 166.03125 92.671875 C 165.871094 92.148438 165.875 91.613281 166.074219 91.09375 C 166.203125 90.757812 166.304688 90.40625 166.480469 90.101562 C 166.988281 89.21875 167.203125 88.21875 167.71875 87.335938 C 168.71875 85.636719 169.773438 83.980469 170.984375 82.433594 C 171.640625 81.597656 172.351562 80.785156 173.1875 80.101562 C 173.695312 79.691406 174.167969 79.230469 174.632812 78.8125 C 175.230469 78.609375 175.796875 78.421875 176.363281 78.230469 C 176.839844 78.230469 177.316406 78.230469 177.792969 78.230469 C 178.34375 78.230469 178.855469 78.390625 179.316406 78.675781 C 180.027344 79.113281 180.726562 79.566406 181.457031 80.035156 Z M 179.941406 88.105469 C 179.941406 87.632812 179.9375 87.160156 179.589844 86.773438 C 179.265625 86.53125 178.972656 86.226562 178.53125 86.207031 C 178.472656 86.226562 178.398438 86.222656 178.367188 86.261719 C 178.0625 86.644531 177.929688 87.128906 177.957031 87.578125 C 177.992188 88.117188 177.882812 88.632812 177.898438 89.160156 C 177.917969 89.683594 178.132812 90.183594 178.035156 90.730469 C 178 90.925781 178.164062 91.179688 178.378906 91.316406 C 178.875 91 179.101562 90.789062 179.203125 90.472656 C 179.453125 89.6875 179.695312 88.898438 179.941406 88.105469 Z M 174.675781 90 C 174.59375 90.433594 174.59375 90.859375 174.710938 91.246094 C 174.886719 91.824219 174.960938 92.410156 174.96875 93 C 174.976562 93.753906 175.242188 94.386719 175.71875 94.945312 C 175.945312 95.21875 176.191406 95.472656 176.386719 95.6875 C 176.71875 95.855469 177.003906 95.910156 177.304688 95.839844 C 177.640625 95.761719 177.792969 95.488281 177.722656 95.023438 C 177.636719 94.945312 177.558594 94.847656 177.460938 94.789062 C 176.816406 94.421875 176.382812 93.871094 176.089844 93.203125 C 175.714844 92.335938 175.289062 91.492188 174.972656 90.601562 C 174.902344 90.40625 174.957031 90.148438 174.675781 90 Z M 172.605469 83.699219 C 172.808594 83.546875 172.992188 83.398438 173.191406 83.273438 C 173.496094 83.089844 173.8125 82.925781 174.117188 82.75 C 174.476562 82.542969 174.839844 82.34375 175.183594 82.109375 C 175.320312 82.015625 175.402344 81.84375 175.5 81.71875 C 175.375 81.515625 175.191406 81.464844 175.042969 81.53125 C 174.394531 81.820312 173.761719 82.136719 173.402344 82.304688 C 171.640625 83.707031 171.042969 85.453125 170.410156 87.246094 C 170.425781 87.589844 170.421875 88 170.464844 88.402344 C 170.480469 88.53125 170.636719 88.546875 170.800781 88.449219 C 171.25 86.828125 171.886719 85.246094 172.605469 83.699219 Z M 169.003906 89.554688 C 168.855469 89.59375 168.6875 89.589844 168.65625 89.652344 C 168.402344 90.1875 168.164062 90.726562 167.945312 91.277344 C 167.789062 91.671875 167.746094 92.078125 167.953125 92.578125 C 168.09375 92.726562 168.269531 92.980469 168.511719 93.136719 C 168.953125 93.429688 169.429688 93.667969 169.894531 93.921875 C 169.9375 93.945312 170.015625 93.941406 170.058594 93.917969 C 170.175781 93.847656 170.222656 93.734375 170.179688 93.613281 C 169.722656 92.277344 169.304688 90.933594 169.003906 89.554688 Z M 176.855469 79.308594 C 176.546875 79.453125 176.226562 79.601562 175.90625 79.757812 C 175.800781 79.808594 175.707031 79.886719 175.621094 79.964844 C 175.578125 80 175.542969 80.066406 175.539062 80.117188 C 175.539062 80.164062 175.589844 80.25 175.613281 80.246094 C 176.519531 80.210938 177.359375 80.480469 178.210938 80.730469 C 178.792969 80.898438 179.316406 81.160156 179.789062 81.539062 C 180.019531 81.722656 180.261719 81.898438 180.515625 82.050781 C 180.589844 82.09375 180.765625 82.070312 180.828125 82.011719 C 180.886719 81.957031 180.90625 81.742188 180.859375 81.710938 C 180.316406 81.324219 179.996094 80.738281 179.582031 80.269531 C 178.738281 79.742188 177.859375 79.414062 176.855469 79.308594 Z M 172.667969 88.160156 C 172.558594 88.316406 172.5 88.363281 172.492188 88.417969 C 172.363281 89.726562 172.382812 91.035156 172.480469 92.347656 C 172.511719 92.765625 172.664062 93.132812 172.980469 93.421875 C 173.015625 93.308594 173.105469 93.183594 173.078125 93.09375 C 172.800781 92.226562 172.804688 91.335938 172.8125 90.441406 C 172.816406 89.734375 172.914062 89.015625 172.667969 88.160156 Z M 172.667969 88.160156 " fill-opacity="1" fill-rule="nonzero"/></g><g clip-path="url(#f3552f2397)"><path fill="#f0cf65" d="M 142.230469 129.128906 C 141.34375 129.785156 140.460938 130.140625 139.585938 130.515625 C 139.203125 130.679688 138.800781 130.796875 138.425781 130.976562 C 138.050781 131.15625 137.703125 131.390625 137.277344 131.636719 C 136.933594 131.660156 136.519531 131.6875 136.070312 131.71875 C 135.613281 131.476562 135.152344 131.21875 134.675781 130.980469 C 134.027344 130.65625 133.441406 130.261719 133.019531 129.65625 C 132.953125 129.558594 132.902344 129.433594 132.808594 129.375 C 131.886719 128.792969 131.265625 127.890625 130.460938 127.1875 C 130.105469 126.875 129.699219 126.617188 129.335938 126.308594 C 128.882812 125.925781 128.410156 125.554688 128.023438 125.109375 C 127.714844 124.757812 127.410156 124.335938 127.300781 123.894531 C 127.167969 123.351562 126.800781 122.949219 126.632812 122.457031 C 126.460938 121.691406 126.515625 120.90625 126.242188 120.160156 C 126.101562 119.789062 126.152344 119.335938 126.179688 118.921875 C 126.207031 118.433594 126.117188 117.976562 125.980469 117.472656 C 126.125 116.996094 126.273438 116.484375 126.429688 115.957031 C 126.265625 115.253906 126.511719 114.6875 127.121094 114.296875 C 127.195312 113.847656 127.265625 113.441406 127.332031 113.039062 C 127.492188 112.511719 128.042969 112.207031 128.03125 111.691406 C 128.660156 111.097656 129.222656 110.566406 129.8125 110.011719 C 130.175781 109.878906 130.566406 109.734375 130.988281 109.582031 C 131.136719 109.601562 131.320312 109.589844 131.484375 109.644531 C 132.164062 109.875 132.921875 109.714844 133.574219 110.082031 C 134.839844 110.28125 135.9375 110.890625 137 111.546875 C 138.058594 112.203125 139.101562 112.894531 140.082031 113.675781 C 140.933594 114.355469 141.640625 115.121094 142.230469 116.035156 C 142.78125 116.890625 143.304688 117.75 143.652344 118.753906 C 143.8125 119.464844 143.835938 120.238281 144.03125 120.996094 C 144.21875 121.734375 144.226562 122.519531 144.3125 123.285156 C 144.058594 123.910156 144.203125 124.585938 144.035156 125.332031 C 143.777344 125.882812 143.472656 126.519531 143.269531 127.210938 C 143.074219 127.898438 142.664062 128.5 142.230469 129.128906 Z M 134.074219 123.796875 C 134.085938 123.90625 134.09375 124.019531 134.109375 124.132812 C 134.136719 124.308594 134.214844 124.335938 134.304688 124.207031 C 134.328125 124.175781 134.316406 124.085938 134.285156 124.046875 C 134.214844 123.964844 134.125 123.898438 134.042969 123.820312 C 134.035156 123.644531 134.074219 123.445312 134.011719 123.289062 C 133.714844 122.558594 133.613281 121.800781 133.617188 121.019531 C 133.617188 120.726562 133.519531 120.433594 133.476562 120.140625 C 133.441406 119.910156 133.351562 119.65625 133.40625 119.441406 C 133.597656 118.636719 133.617188 117.785156 134.039062 117.039062 C 134.1875 116.78125 134.308594 116.507812 134.433594 116.238281 C 134.578125 115.921875 134.9375 115.726562 134.9375 115.332031 C 133.894531 114.5 133.75 114.460938 132.683594 114.742188 C 132.242188 115.128906 131.964844 115.65625 131.691406 116.085938 C 131.542969 116.628906 131.382812 117.082031 131.296875 117.546875 C 131.222656 117.953125 131.171875 118.378906 131.214844 118.785156 C 131.261719 119.253906 131.421875 119.707031 131.519531 120.121094 C 131.46875 120.402344 131.425781 120.632812 131.40625 120.746094 C 131.621094 122.101562 132.011719 123.273438 132.503906 124.4375 C 133.011719 125.632812 133.800781 126.539062 134.792969 127.3125 C 134.929688 127.417969 135.136719 127.40625 135.277344 127.230469 C 135.179688 126.738281 134.691406 126.515625 134.46875 126.097656 C 134.246094 125.679688 133.949219 125.300781 133.726562 124.882812 C 133.511719 124.484375 133.152344 124.125 133.238281 123.609375 C 133.582031 123.445312 133.800781 123.734375 134.074219 123.796875 Z M 131.578125 112.335938 C 131.703125 112.65625 131.863281 112.839844 132.105469 112.890625 C 132.453125 112.96875 132.8125 112.992188 133.164062 113.058594 C 134.683594 113.339844 136.175781 113.667969 137.511719 114.539062 C 138.265625 115.03125 138.972656 115.570312 139.566406 116.234375 C 140.160156 116.894531 140.679688 117.625 141.089844 118.148438 C 141.542969 119.261719 141.730469 120.183594 141.632812 121.15625 C 141.613281 121.390625 141.640625 121.632812 141.671875 121.871094 C 141.675781 121.929688 141.773438 121.976562 141.878906 122.085938 C 142.011719 121.4375 141.953125 120.839844 141.964844 120.253906 C 141.972656 119.78125 142 119.300781 141.832031 118.839844 C 141.570312 118.113281 141.480469 117.335938 141.066406 116.660156 C 140.816406 116.253906 140.570312 115.851562 140.230469 115.507812 C 139.429688 114.699219 138.542969 114.007812 137.589844 113.394531 C 136.890625 112.945312 136.15625 112.550781 135.46875 112.078125 C 134.964844 111.734375 134.398438 111.5625 133.84375 111.359375 C 133.390625 111.191406 132.910156 111.160156 132.429688 111.238281 C 132.117188 111.285156 131.867188 111.453125 131.738281 111.738281 C 131.644531 111.945312 131.617188 112.183594 131.578125 112.335938 Z M 137.003906 122.4375 C 137.230469 122.886719 137.144531 123.359375 137.585938 123.640625 C 137.769531 123.542969 137.972656 123.429688 138.125 123.347656 C 138.398438 122.878906 138.628906 122.46875 138.683594 121.980469 C 138.78125 121.15625 138.890625 120.335938 138.980469 119.511719 C 139.011719 119.207031 138.925781 118.921875 138.722656 118.683594 C 138.601562 118.539062 138.441406 118.492188 138.210938 118.550781 C 137.769531 119.011719 137.65625 119.675781 137.394531 120.144531 C 137.332031 120.730469 137.300781 121.207031 137.234375 121.675781 C 137.199219 121.90625 137.101562 122.125 137.003906 122.4375 Z M 142.191406 128.007812 C 142.546875 126.8125 142.921875 125.628906 143.246094 124.429688 C 143.351562 124.039062 143.328125 123.609375 143.335938 123.195312 C 143.335938 123.125 143.203125 122.984375 143.140625 122.988281 C 143.039062 122.992188 142.90625 123.074219 142.859375 123.160156 C 142.78125 123.3125 142.742188 123.492188 142.707031 123.660156 C 142.351562 125.4375 141.660156 127.046875 140.382812 128.375 C 140.179688 128.585938 139.992188 128.824219 139.855469 129.082031 C 139.746094 129.292969 139.75 129.539062 139.988281 129.710938 C 140.429688 129.675781 140.804688 129.457031 141.027344 129.105469 C 141.296875 128.683594 141.71875 128.460938 142.191406 128.007812 Z M 128.808594 113.21875 C 129.054688 113.042969 129.347656 112.847656 129.625 112.628906 C 129.8125 112.484375 129.996094 112.324219 130.132812 112.136719 C 130.546875 111.570312 130.933594 110.984375 131.335938 110.402344 C 130.960938 110.230469 130.804688 110.207031 130.679688 110.289062 C 130.027344 110.714844 129.449219 111.234375 129.0625 111.898438 C 128.757812 112.421875 128.375 112.851562 127.945312 113.257812 C 127.863281 113.332031 127.824219 113.453125 127.765625 113.554688 C 127.925781 113.859375 127.925781 113.859375 128.28125 113.957031 C 128.441406 113.738281 128.609375 113.5 128.808594 113.21875 Z M 136.4375 116.507812 C 136.183594 116.5625 136.011719 116.734375 135.933594 116.953125 C 135.652344 117.730469 135.398438 118.515625 135.121094 119.324219 C 135.160156 119.53125 135.207031 119.757812 135.25 119.992188 C 135.394531 119.945312 135.554688 119.945312 135.585938 119.878906 C 136.027344 118.921875 136.453125 117.953125 136.871094 117.011719 C 136.835938 116.722656 136.695312 116.5625 136.4375 116.507812 Z M 136.621094 126.570312 C 136.617188 126.527344 136.636719 126.460938 136.609375 126.4375 C 136.230469 126.097656 135.84375 125.761719 135.503906 125.46875 C 135.296875 125.46875 135.195312 125.554688 135.238281 125.664062 C 135.445312 126.15625 135.773438 126.542969 136.316406 126.679688 C 136.402344 126.703125 136.519531 126.609375 136.621094 126.570312 Z M 135.792969 129.746094 C 136.460938 130.222656 136.464844 130.226562 136.835938 130.207031 C 136.914062 130.203125 136.992188 130.09375 137.050781 130.015625 C 137.070312 129.992188 137.035156 129.890625 136.996094 129.867188 C 136.855469 129.777344 136.710938 129.667969 136.554688 129.640625 C 136.296875 129.589844 136.019531 129.523438 135.792969 129.746094 Z M 141.429688 122.988281 C 141.296875 123.183594 141.292969 123.375 141.4375 123.570312 C 141.570312 123.375 141.601562 123.179688 141.429688 122.988281 Z M 130.980469 114.226562 C 131.019531 114.203125 131.078125 114.1875 131.089844 114.152344 C 131.109375 114.109375 131.109375 114.035156 131.082031 114.003906 C 130.996094 113.910156 130.921875 113.949219 130.910156 114.101562 C 130.910156 114.140625 130.957031 114.183594 130.980469 114.226562 Z M 130.980469 114.226562 " fill-opacity="1" fill-rule="nonzero"/></g><g clip-path="url(#0a4239b2d1)"><path fill="#f0cf65" d="M 198.066406 111.84375 C 197.296875 112.054688 196.472656 112.0625 195.585938 111.871094 C 195.136719 111.5625 194.648438 111.226562 194.214844 110.929688 C 194.019531 110.546875 193.863281 110.234375 193.695312 109.90625 C 193.253906 109.863281 192.839844 109.851562 192.433594 109.785156 C 191.5 109.628906 190.777344 109.144531 190.328125 108.296875 C 189.941406 107.558594 189.59375 106.804688 189.46875 105.96875 C 189.441406 105.792969 189.382812 105.621094 189.382812 105.449219 C 189.382812 105.273438 189.433594 105.101562 189.464844 104.925781 C 189.320312 104.660156 189.183594 104.398438 189.066406 104.171875 C 189.066406 104.015625 189.058594 103.898438 189.066406 103.78125 C 189.113281 103.191406 188.804688 102.609375 188.988281 102.019531 C 189.144531 101.503906 189.1875 100.96875 189.308594 100.449219 C 189.476562 99.707031 189.589844 98.941406 190.117188 98.316406 C 190.335938 98.054688 190.378906 97.65625 190.558594 97.351562 C 190.992188 96.636719 191.484375 95.964844 192.089844 95.382812 C 192.476562 95.011719 192.867188 94.644531 193.304688 94.226562 C 194.242188 93.722656 195.222656 93.164062 196.21875 92.765625 C 196.742188 92.660156 197.199219 93 197.679688 92.730469 C 197.863281 92.628906 198.140625 92.664062 198.375 92.6875 C 199.082031 92.757812 199.785156 92.867188 200.492188 92.933594 C 201.332031 93.011719 202.136719 93.199219 202.980469 93.550781 C 203.472656 93.964844 204.054688 94.421875 204.425781 95.019531 C 205.019531 95.972656 205.816406 96.828125 206.066406 97.972656 C 206.289062 98.992188 206.09375 99.972656 205.746094 100.941406 C 205.261719 102.292969 204.339844 104.234375 203.574219 105.425781 C 203.539062 105.476562 203.488281 105.511719 203.460938 105.566406 C 203.191406 106.089844 203.089844 106.695312 202.652344 107.140625 C 202.273438 107.527344 202.015625 108 201.792969 108.488281 C 201.746094 108.597656 201.675781 108.699219 201.589844 108.78125 C 200.492188 109.863281 199.542969 111.113281 198.066406 111.84375 Z M 203.65625 100.878906 C 203.53125 100.992188 203.359375 101.082031 203.285156 101.222656 C 202.742188 102.261719 202.339844 103.375 201.667969 104.304688 C 201.738281 104.585938 201.78125 104.828125 202.125 104.949219 C 202.183594 104.390625 202.515625 103.96875 202.820312 103.539062 C 203.207031 102.984375 203.226562 102.308594 203.515625 101.722656 C 203.636719 101.476562 203.597656 101.148438 203.628906 100.855469 C 203.679688 100.828125 203.75 100.808594 203.777344 100.765625 C 204.035156 100.320312 204.199219 99.84375 204.273438 99.335938 C 204.289062 99.234375 204.21875 99.121094 204.1875 99.003906 C 203.9375 99.164062 203.824219 99.417969 203.78125 99.683594 C 203.714844 100.078125 203.695312 100.480469 203.65625 100.878906 Z M 199.566406 97.667969 C 198.984375 97.753906 198.628906 98.070312 198.382812 98.488281 C 197.460938 100.042969 196.863281 101.71875 196.539062 103.488281 C 196.507812 103.660156 196.535156 103.847656 196.566406 104.019531 C 196.597656 104.199219 196.707031 104.339844 196.894531 104.402344 C 197.078125 104.460938 197.246094 104.429688 197.394531 104.316406 C 197.488281 104.246094 197.605469 104.171875 197.648438 104.074219 C 198.058594 103.15625 198.597656 102.296875 198.890625 101.328125 C 198.996094 100.992188 199.019531 100.628906 199.121094 100.292969 C 199.167969 100.136719 199.332031 100.035156 199.582031 100.09375 C 199.695312 100.472656 199.671875 100.894531 199.726562 101.304688 C 199.789062 101.773438 199.582031 102.253906 199.785156 102.714844 C 199.84375 102.710938 199.917969 102.726562 199.9375 102.699219 C 200.445312 101.972656 200.949219 101.242188 201.394531 100.589844 C 201.5 100.078125 201.582031 99.671875 201.660156 99.269531 C 201.480469 98.8125 201.214844 98.425781 200.855469 98.09375 C 200.410156 97.945312 199.960938 97.796875 199.566406 97.667969 Z M 194.328125 103.160156 C 194.417969 102.855469 194.488281 102.5 194.625 102.175781 C 195.265625 100.652344 195.621094 98.996094 196.773438 97.714844 C 196.96875 97.503906 197.050781 97.191406 197.199219 96.933594 C 197.316406 96.730469 197.457031 96.539062 197.59375 96.332031 C 198.125 96.203125 198.644531 96.089844 199.15625 95.949219 C 199.824219 95.769531 200.449219 95.796875 201.023438 96.226562 C 201.460938 96.554688 201.996094 96.644531 202.488281 96.839844 C 202.644531 96.90625 202.855469 96.6875 202.800781 96.511719 C 202.75 96.347656 202.699219 96.15625 202.582031 96.046875 C 202.054688 95.5625 201.441406 95.199219 200.757812 94.824219 C 200.332031 94.808594 199.859375 94.789062 199.382812 94.78125 C 198.886719 94.769531 198.429688 94.945312 198.066406 95.257812 C 197.480469 95.761719 196.863281 96.257812 196.402344 96.863281 C 195.792969 97.660156 195.214844 98.5 194.808594 99.433594 C 194.5 100.140625 194.160156 100.835938 193.800781 101.601562 C 193.722656 101.996094 193.664062 102.472656 193.53125 102.925781 C 193.21875 104 193.289062 105.042969 193.726562 106.066406 C 193.769531 106.171875 193.859375 106.257812 193.9375 106.367188 C 194.351562 106.652344 194.789062 106.726562 195.246094 106.4375 C 195.253906 106.320312 195.265625 106.207031 195.273438 106.09375 C 195.050781 105.605469 194.480469 105.363281 194.328125 104.722656 C 194.328125 104.269531 194.328125 103.734375 194.328125 103.160156 Z M 190.132812 101.5625 C 190.226562 101.972656 190.304688 102.320312 190.382812 102.671875 C 190.472656 103.070312 190.226562 103.507812 190.503906 103.886719 C 190.777344 103.84375 190.933594 103.65625 190.984375 103.421875 C 191.15625 102.660156 191.414062 101.933594 191.789062 101.246094 C 191.875 101.089844 191.949219 100.917969 191.976562 100.742188 C 192.074219 100.136719 192.394531 99.628906 192.679688 99.105469 C 192.996094 98.53125 193.398438 98.003906 193.679688 97.414062 C 194.050781 96.640625 194.609375 96.03125 195.195312 95.433594 C 195.574219 95.050781 195.976562 94.691406 196.351562 94.308594 C 196.472656 94.1875 196.546875 94.019531 196.640625 93.875 C 196.417969 93.675781 196.160156 93.667969 195.953125 93.773438 C 195.367188 94.0625 194.828125 94.464844 194.222656 94.695312 C 193.691406 94.898438 193.289062 95.214844 192.953125 95.640625 C 192.699219 95.96875 192.4375 96.308594 192.265625 96.683594 C 192.027344 97.195312 191.585938 97.503906 191.15625 97.910156 C 191.136719 98.417969 190.964844 98.921875 190.722656 99.40625 C 190.640625 99.5625 190.507812 99.753906 190.539062 99.902344 C 190.660156 100.488281 190.253906 100.925781 190.132812 101.5625 Z M 199.089844 107.707031 C 197.851562 108.464844 196.820312 109.164062 195.660156 109.640625 C 195.515625 109.699219 195.488281 109.96875 195.582031 110.113281 C 195.761719 110.386719 196.027344 110.484375 196.40625 110.511719 C 196.847656 110.359375 197.351562 110.1875 197.714844 110.066406 C 198.265625 109.664062 198.707031 109.363281 199.125 109.035156 C 199.40625 108.816406 199.699219 108.589844 199.90625 108.3125 C 200.40625 107.648438 200.863281 106.953125 201.328125 106.261719 C 201.386719 106.171875 201.390625 106.039062 201.402344 105.921875 C 201.40625 105.875 201.378906 105.789062 201.34375 105.773438 C 201.242188 105.730469 201.078125 105.65625 201.03125 105.699219 C 200.335938 106.328125 199.492188 106.8125 199.089844 107.707031 Z M 199.089844 107.707031 " fill-opacity="1" fill-rule="nonzero"/></g><g clip-path="url(#de7e944c02)"><path fill="#f0cf65" d="M 206.859375 131.34375 C 206.859375 131.761719 206.859375 132.175781 206.859375 132.710938 C 206.648438 133.152344 206.402344 133.691406 206.140625 134.222656 C 205.738281 135.027344 205.285156 135.761719 204.441406 136.226562 C 203.824219 136.566406 203.371094 137.15625 202.765625 137.554688 C 202.164062 137.945312 201.566406 138.335938 200.914062 138.621094 C 199.824219 139.097656 198.714844 139.527344 197.613281 139.980469 C 197.113281 140.1875 196.601562 140.277344 196.058594 140.332031 C 195.355469 140.40625 194.667969 140.621094 193.960938 140.71875 C 193.265625 140.8125 192.570312 141.003906 191.878906 141.160156 C 191.761719 141.1875 191.644531 141.238281 191.535156 141.230469 C 191.425781 141.222656 191.28125 141.175781 191.234375 141.097656 C 191.1875 141.027344 191.25 140.886719 191.269531 140.742188 C 191.46875 140.65625 191.679688 140.527344 191.902344 140.476562 C 192.425781 140.363281 192.972656 140.339844 193.476562 140.179688 C 194 140.019531 194.519531 139.949219 195.058594 139.957031 C 195.417969 139.960938 195.761719 139.890625 196.105469 139.765625 C 196.492188 139.625 196.910156 139.570312 197.429688 139.453125 C 198.109375 138.941406 198.960938 138.539062 199.890625 138.28125 C 200.578125 138.089844 201.214844 137.769531 201.8125 137.355469 C 202.246094 137.050781 202.742188 136.828125 203.355469 136.488281 C 203.796875 136.074219 204.265625 135.4375 204.894531 135.210938 C 205.683594 134.097656 205.925781 132.917969 206.347656 131.746094 C 206.507812 131.632812 206.695312 131.5 206.886719 131.367188 Z M 206.859375 131.34375 " fill-opacity="1" fill-rule="nonzero"/></g><path fill="#f0cf65" d="M 144.535156 143.785156 C 144.871094 143.308594 144.875 143.3125 145.308594 143.085938 C 145.34375 143.117188 145.414062 143.148438 145.417969 143.183594 C 145.5625 144.710938 145.449219 146.242188 145.472656 147.769531 C 145.472656 147.855469 145.355469 147.953125 145.277344 148.023438 C 145.179688 148.109375 144.90625 147.925781 144.894531 147.761719 C 144.835938 147.003906 144.742188 146.253906 144.558594 145.507812 C 144.4375 145.007812 144.535156 144.453125 144.535156 143.785156 Z M 144.535156 143.785156 " fill-opacity="1" fill-rule="nonzero"/><path fill="#f0cf65" d="M 184.878906 142.445312 C 184.722656 142.179688 184.6875 141.984375 184.894531 141.914062 C 185.339844 141.761719 185.792969 141.609375 186.253906 141.539062 C 187.433594 141.359375 188.578125 141.0625 189.726562 140.769531 C 189.871094 140.730469 190.054688 140.847656 190.195312 140.886719 C 190.304688 141.1875 190.222656 141.382812 189.988281 141.515625 C 189.886719 141.574219 189.769531 141.660156 189.664062 141.652344 C 188.503906 141.582031 187.457031 142.074219 186.367188 142.328125 C 185.890625 142.441406 185.4375 142.492188 184.878906 142.445312 Z M 184.878906 142.445312 " fill-opacity="1" fill-rule="nonzero"/><g clip-path="url(#4e72153604)"><path fill="#f0cf65" d="M 206.886719 131.367188 C 206.769531 130.851562 206.609375 130.34375 206.546875 129.820312 C 206.492188 129.351562 206.550781 128.871094 206.546875 128.394531 C 206.542969 128.035156 206.480469 127.6875 206.332031 127.355469 C 206.132812 126.910156 206.128906 126.433594 206.167969 125.957031 L 206.140625 125.984375 C 206.292969 126.070312 206.445312 126.152344 206.644531 126.265625 C 206.828125 126.796875 207.023438 127.347656 207.195312 127.832031 C 207.195312 128.859375 207.199219 129.804688 207.191406 130.753906 C 207.191406 131.003906 207.066406 131.203125 206.859375 131.34375 Z M 206.886719 131.367188 " fill-opacity="1" fill-rule="nonzero"/></g><path fill="#f0cf65" d="M 145.878906 138.148438 C 145.863281 138.847656 145.933594 139.550781 145.640625 140.230469 C 145.53125 140.480469 145.578125 140.804688 145.558594 141.097656 C 145.535156 141.445312 145.519531 141.792969 145.503906 142.101562 C 145.050781 142.511719 145.050781 142.511719 144.601562 142.195312 C 144.691406 141.515625 144.78125 140.820312 144.875 140.128906 C 144.890625 140.015625 144.910156 139.898438 144.941406 139.785156 C 145.085938 139.28125 145.238281 138.78125 145.386719 138.265625 C 145.566406 138.234375 145.738281 138.207031 145.910156 138.175781 Z M 145.878906 138.148438 " fill-opacity="1" fill-rule="nonzero"/><path fill="#f0cf65" d="M 200.757812 119.523438 C 200.929688 119.550781 201.101562 119.578125 201.324219 119.617188 C 201.925781 120.105469 202.5 120.679688 203.210938 121.101562 C 203.78125 121.441406 204.101562 122.023438 203.988281 122.746094 L 204.015625 122.71875 C 203.863281 122.636719 203.6875 122.578125 203.5625 122.46875 C 202.660156 121.652344 201.769531 120.824219 200.851562 119.984375 C 200.832031 119.835938 200.808594 119.664062 200.789062 119.496094 Z M 200.757812 119.523438 " fill-opacity="1" fill-rule="nonzero"/><path fill="#f0cf65" d="M 184.328125 142.058594 C 183.960938 142.476562 183.875 142.667969 183.746094 142.707031 C 183.011719 142.914062 182.3125 143.246094 181.511719 143.167969 C 181.101562 143.125 180.691406 143.226562 180.300781 143.390625 C 180.144531 143.457031 179.960938 143.472656 179.785156 143.472656 C 179.683594 143.472656 179.546875 143.414062 179.480469 143.335938 C 179.421875 143.265625 179.441406 143.128906 179.425781 143.019531 C 179.902344 142.691406 180.460938 142.886719 180.972656 142.773438 C 181.429688 142.671875 181.835938 142.378906 182.332031 142.4375 C 182.871094 142.5 183.386719 142.382812 184.328125 142.058594 Z M 184.328125 142.058594 " fill-opacity="1" fill-rule="nonzero"/><g clip-path="url(#f1681079d0)"><path fill="#f0cf65" d="M 206.167969 125.957031 C 206 125.921875 205.832031 125.886719 205.609375 125.839844 C 205.488281 125.609375 205.320312 125.367188 205.226562 125.101562 C 205.070312 124.660156 204.871094 124.261719 204.515625 123.941406 C 204.40625 123.84375 204.414062 123.617188 204.371094 123.453125 L 204.339844 123.476562 C 204.875 123.453125 205.300781 123.710938 205.511719 124.15625 C 205.785156 124.734375 206.117188 125.308594 206.140625 125.984375 Z M 206.167969 125.957031 " fill-opacity="1" fill-rule="nonzero"/></g><path fill="#f0cf65" d="M 178.34375 143.308594 C 177.601562 143.566406 177.007812 143.585938 175.605469 143.402344 C 176.378906 142.886719 177.230469 142.773438 178.125 142.914062 C 178.308594 142.945312 178.386719 143.113281 178.34375 143.308594 Z M 178.34375 143.308594 " fill-opacity="1" fill-rule="nonzero"/><path fill="#f0cf65" d="M 145.402344 149.835938 C 145.144531 149.558594 145.054688 149.25 145.265625 148.902344 C 145.328125 148.800781 145.457031 148.773438 145.554688 148.878906 C 145.667969 149 145.753906 149.15625 145.820312 149.308594 C 145.894531 149.476562 145.855469 149.660156 145.714844 149.777344 C 145.640625 149.835938 145.507812 149.820312 145.402344 149.835938 Z M 145.402344 149.835938 " fill-opacity="1" fill-rule="nonzero"/><path fill="#f0cf65" d="M 174.441406 143.660156 C 173.96875 143.949219 173.582031 144.085938 173.171875 144.15625 C 173.132812 144.164062 173.0625 144.113281 173.035156 144.070312 C 173.015625 144.042969 173.03125 143.96875 173.054688 143.9375 C 173.417969 143.488281 173.867188 143.574219 174.441406 143.660156 Z M 174.441406 143.660156 " fill-opacity="1" fill-rule="nonzero"/><path fill="#f0cf65" d="M 146.269531 151.773438 C 146.132812 151.679688 145.988281 151.597656 145.863281 151.492188 C 145.757812 151.40625 145.753906 151.292969 145.839844 151.226562 C 145.867188 151.199219 145.941406 151.207031 145.984375 151.222656 C 146.03125 151.242188 146.089844 151.277344 146.105469 151.320312 C 146.15625 151.476562 146.195312 151.640625 146.238281 151.800781 Z M 146.269531 151.773438 " fill-opacity="1" fill-rule="nonzero"/><path fill="#f0cf65" d="M 203.988281 122.746094 C 204.289062 122.898438 204.355469 123.167969 204.339844 123.476562 L 204.371094 123.453125 C 204.035156 123.3125 204.027344 123.015625 204.015625 122.71875 Z M 203.988281 122.746094 " fill-opacity="1" fill-rule="nonzero"/><path fill="#f0cf65" d="M 166.554688 148.675781 C 166.511719 148.660156 166.4375 148.644531 166.4375 148.632812 C 166.441406 148.578125 166.46875 148.527344 166.484375 148.476562 C 166.527344 148.492188 166.601562 148.507812 166.601562 148.523438 C 166.597656 148.574219 166.570312 148.625 166.554688 148.675781 Z M 166.554688 148.675781 " fill-opacity="1" fill-rule="nonzero"/><path fill="#f0cf65" d="M 146.238281 151.800781 C 146.328125 151.871094 146.425781 151.933594 146.503906 152.015625 C 146.535156 152.046875 146.546875 152.140625 146.523438 152.179688 C 146.433594 152.316406 146.34375 152.289062 146.304688 152.117188 C 146.28125 152.003906 146.28125 151.886719 146.269531 151.773438 Z M 146.238281 151.800781 " fill-opacity="1" fill-rule="nonzero"/><path fill="#f0cf65" d="M 132.144531 121.433594 C 132.191406 121.417969 132.242188 121.382812 132.28125 121.390625 C 132.433594 121.429688 132.449219 121.507812 132.320312 121.582031 C 132.285156 121.601562 132.210938 121.578125 132.171875 121.550781 C 132.148438 121.535156 132.152344 121.476562 132.144531 121.433594 Z M 132.144531 121.433594 " fill-opacity="1" fill-rule="nonzero"/><g transform="matrix(1, 0, 0, 1, 116, 133)"><g clip-path="url(#fc955c1fe4)"><g fill="#2f1b25" fill-opacity="1"><g transform="translate(0.345007, 59.166226)"><g><path d="M 6.203125 -4.140625 C 3.066406 -7.554688 1.5 -11.742188 1.5 -16.703125 C 1.5 -21.671875 3.066406 -25.875 6.203125 -29.3125 C 9.335938 -32.75 13.316406 -34.46875 18.140625 -34.46875 C 22.585938 -34.46875 26.242188 -33.078125 29.109375 -30.296875 L 29.109375 -33.484375 L 40.671875 -33.484375 L 40.671875 0 L 29.25 0 L 29.25 -3.78125 L 29.109375 -3.78125 C 26.242188 -0.601562 22.585938 0.984375 18.140625 0.984375 C 13.316406 0.984375 9.335938 -0.722656 6.203125 -4.140625 Z M 16.03125 -22.390625 C 14.53125 -20.910156 13.78125 -19.015625 13.78125 -16.703125 C 13.78125 -14.398438 14.492188 -12.519531 15.921875 -11.0625 C 17.359375 -9.601562 19.253906 -8.875 21.609375 -8.875 C 23.867188 -8.875 25.726562 -9.613281 27.1875 -11.09375 C 28.644531 -12.570312 29.375 -14.445312 29.375 -16.71875 C 29.375 -19.019531 28.625 -20.910156 27.125 -22.390625 C 25.625 -23.867188 23.785156 -24.609375 21.609375 -24.609375 C 19.390625 -24.609375 17.53125 -23.867188 16.03125 -22.390625 Z M 16.03125 -22.390625 "/></g></g></g><g fill="#2f1b25" fill-opacity="1"><g transform="translate(38.792727, 59.166226)"><g><path d="M 24.484375 0 L 16.640625 0 L -1.3125 -33.484375 L 12.015625 -33.484375 L 20.171875 -15.40625 L 28.203125 -33.484375 L 36.171875 -33.484375 L 44.203125 -15.40625 L 52.359375 -33.484375 L 65.671875 -33.484375 L 47.71875 0 L 39.890625 0 L 32.1875 -17.296875 Z M 24.484375 0 "/></g></g></g></g></g><g fill="#000000" fill-opacity="1"><g transform="translate(212.934204, 188.021692)"><g><path d="M 51.71875 -57.515625 L 57.8125 -55.09375 L 57.515625 -52.09375 L 48.15625 -52.21875 L 49.046875 0 L 46.09375 1.3125 L 41.640625 -0.515625 L 41.859375 -18.875 L 23.015625 -10.03125 L 9.515625 -21.703125 L 13.796875 -32.328125 L 4.1875 -32.03125 L 3.046875 -37.109375 L 4.1875 -38.34375 L 32.03125 -38.046875 L 32.796875 -34.359375 L 31.78125 -32.203125 L 20.140625 -32.125 L 17.21875 -23.828125 L 24.625 -17.5625 L 41.890625 -24.84375 L 42.1875 -52.21875 L -0.078125 -52.09375 L -0.96875 -54.546875 L 3.59375 -57.46875 Z M 51.71875 -57.515625 "/></g></g></g><g fill="#000000" fill-opacity="1"><g transform="translate(269.643338, 188.021692)"><g><path d="M 23.28125 -54.71875 L 23.609375 -52.09375 L 14.296875 -52.09375 L 15.15625 -0.25 L 13.5 1.0625 L 7.75 -0.34375 L 8.34375 -52.09375 L -0.25 -52.09375 L -1.140625 -55.234375 L 1.8125 -57.46875 L 18.578125 -57.46875 Z M 23.28125 -54.71875 "/></g></g></g><g clip-path="url(#ed8f6c0c58)"><path fill="#000000" d="M 97.417969 142.714844 C 98.386719 143.089844 100.558594 143.277344 101.429688 142.589844 C 102.484375 141.761719 101.121094 139.800781 99.730469 138.882812 C 98.433594 139.957031 97.683594 141.242188 97.417969 142.714844 Z M 125.96875 148.539062 C 125.96875 136.523438 116.1875 126.691406 104.238281 126.691406 L 70.796875 126.691406 C 70.1875 126.691406 69.59375 126.714844 69 126.769531 L 69 140.886719 C 69.539062 140.253906 70.179688 139.800781 70.9375 139.582031 C 75.3125 138.296875 76.929688 143.078125 75.742188 146.886719 C 73.613281 153.75 78.40625 154.273438 82.921875 150.917969 C 87.515625 147.507812 90.027344 142.625 89.378906 134.6875 C 91.347656 134.820312 93.332031 134.632812 95.28125 134.820312 C 99.167969 135.195312 101.285156 136.902344 103.894531 140.054688 C 105.558594 142.082031 106.507812 142.800781 107.617188 143.179688 C 110.527344 144.164062 120.285156 145.160156 121.308594 147.605469 C 121.914062 149.058594 120.914062 150.109375 119.4375 151.050781 C 117.53125 157.09375 114.226562 158.945312 108.566406 159.929688 C 97.738281 161.824219 86.679688 164.238281 79 170.371094 C 73.503906 174.765625 69.726562 181.066406 69 190.441406 L 82.417969 190.441406 C 82.582031 178.253906 91.546875 173.535156 101.859375 171.246094 C 114.027344 168.542969 125.96875 165.109375 125.96875 148.539062 Z M 125.96875 148.539062 " fill-opacity="1" fill-rule="evenodd"/></g><g fill="#000000" fill-opacity="1"><g transform="translate(68.865907, 213.609243)"><g><path d="M 3.75 -7.21875 C 4.113281 -7.21875 4.445312 -7.117188 4.75 -6.921875 C 5.0625 -6.722656 5.304688 -6.457031 5.484375 -6.125 C 5.671875 -5.789062 5.765625 -5.421875 5.765625 -5.015625 C 5.765625 -4.609375 5.671875 -4.234375 5.484375 -3.890625 C 5.304688 -3.546875 5.0625 -3.273438 4.75 -3.078125 C 4.445312 -2.878906 4.113281 -2.78125 3.75 -2.78125 L 1.8125 -2.78125 L 1.8125 -0.5 C 1.8125 -0.351562 1.765625 -0.234375 1.671875 -0.140625 C 1.578125 -0.046875 1.460938 0 1.328125 0 C 1.179688 0 1.066406 -0.046875 0.984375 -0.140625 C 0.898438 -0.234375 0.859375 -0.351562 0.859375 -0.5 L 0.859375 -6.71875 C 0.859375 -6.863281 0.90625 -6.984375 1 -7.078125 C 1.09375 -7.171875 1.207031 -7.21875 1.34375 -7.21875 Z M 3.75 -3.71875 C 3.925781 -3.71875 4.09375 -3.773438 4.25 -3.890625 C 4.414062 -4.015625 4.546875 -4.175781 4.640625 -4.375 C 4.734375 -4.570312 4.78125 -4.785156 4.78125 -5.015625 C 4.78125 -5.359375 4.675781 -5.648438 4.46875 -5.890625 C 4.269531 -6.140625 4.03125 -6.265625 3.75 -6.265625 L 1.8125 -6.265625 L 1.8125 -3.71875 Z M 3.75 -3.71875 "/></g></g></g><g fill="#000000" fill-opacity="1"><g transform="translate(81.766579, 213.609243)"><g><path d="M 4.9375 -0.953125 C 5.082031 -0.953125 5.203125 -0.898438 5.296875 -0.796875 C 5.390625 -0.703125 5.4375 -0.59375 5.4375 -0.46875 C 5.4375 -0.332031 5.390625 -0.21875 5.296875 -0.125 C 5.203125 -0.0390625 5.082031 0 4.9375 0 L 1.34375 0 C 1.207031 0 1.09375 -0.046875 1 -0.140625 C 0.90625 -0.234375 0.859375 -0.351562 0.859375 -0.5 L 0.859375 -6.71875 C 0.859375 -6.863281 0.90625 -6.984375 1 -7.078125 C 1.09375 -7.171875 1.207031 -7.21875 1.34375 -7.21875 L 4.9375 -7.21875 C 5.082031 -7.21875 5.203125 -7.171875 5.296875 -7.078125 C 5.390625 -6.992188 5.4375 -6.878906 5.4375 -6.734375 C 5.4375 -6.597656 5.390625 -6.484375 5.296875 -6.390625 C 5.203125 -6.304688 5.082031 -6.265625 4.9375 -6.265625 L 1.875 -6.265625 L 1.875 -4.171875 L 4.46875 -4.171875 C 4.613281 -4.171875 4.734375 -4.125 4.828125 -4.03125 C 4.921875 -3.9375 4.96875 -3.820312 4.96875 -3.6875 C 4.96875 -3.539062 4.921875 -3.425781 4.828125 -3.34375 C 4.734375 -3.269531 4.613281 -3.234375 4.46875 -3.234375 L 1.875 -3.234375 L 1.875 -0.953125 Z M 4.9375 -0.953125 "/></g></g></g><g fill="#000000" fill-opacity="1"><g transform="translate(94.358226, 213.609243)"><g><path d="M 5.53125 -7.21875 C 5.675781 -7.21875 5.796875 -7.175781 5.890625 -7.09375 C 5.984375 -7.007812 6.03125 -6.894531 6.03125 -6.75 C 6.03125 -6.601562 5.984375 -6.488281 5.890625 -6.40625 C 5.796875 -6.320312 5.675781 -6.28125 5.53125 -6.28125 L 3.703125 -6.28125 L 3.703125 -0.5 C 3.703125 -0.351562 3.648438 -0.234375 3.546875 -0.140625 C 3.453125 -0.046875 3.328125 0 3.171875 0 C 3.023438 0 2.898438 -0.046875 2.796875 -0.140625 C 2.703125 -0.234375 2.65625 -0.351562 2.65625 -0.5 L 2.65625 -6.28125 L 0.828125 -6.28125 C 0.679688 -6.28125 0.5625 -6.320312 0.46875 -6.40625 C 0.375 -6.488281 0.328125 -6.601562 0.328125 -6.75 C 0.328125 -6.894531 0.375 -7.007812 0.46875 -7.09375 C 0.5625 -7.175781 0.679688 -7.21875 0.828125 -7.21875 Z M 5.53125 -7.21875 "/></g></g></g><g fill="#000000" fill-opacity="1"><g transform="translate(107.434016, 213.609243)"><g/></g></g><g fill="#000000" fill-opacity="1"><g transform="translate(117.007547, 213.609243)"><g><path d="M 6.40625 -0.640625 C 6.425781 -0.578125 6.4375 -0.507812 6.4375 -0.4375 C 6.4375 -0.300781 6.390625 -0.1875 6.296875 -0.09375 C 6.203125 -0.0078125 6.09375 0.03125 5.96875 0.03125 C 5.875 0.03125 5.785156 0.00390625 5.703125 -0.046875 C 5.628906 -0.109375 5.566406 -0.191406 5.515625 -0.296875 L 4.875 -1.8125 L 1.6875 -1.8125 L 1.0625 -0.28125 C 1.03125 -0.1875 0.972656 -0.109375 0.890625 -0.046875 C 0.816406 0.00390625 0.726562 0.03125 0.625 0.03125 C 0.476562 0.03125 0.367188 -0.00390625 0.296875 -0.078125 C 0.222656 -0.160156 0.1875 -0.265625 0.1875 -0.390625 C 0.1875 -0.421875 0.191406 -0.476562 0.203125 -0.5625 L 2.84375 -6.9375 C 2.882812 -7.039062 2.945312 -7.117188 3.03125 -7.171875 C 3.125 -7.234375 3.222656 -7.257812 3.328125 -7.25 C 3.429688 -7.25 3.523438 -7.21875 3.609375 -7.15625 C 3.691406 -7.101562 3.75 -7.03125 3.78125 -6.9375 Z M 2.078125 -2.75 L 4.484375 -2.75 L 3.28125 -5.640625 Z M 2.078125 -2.75 "/></g></g></g><g fill="#000000" fill-opacity="1"><g transform="translate(130.340851, 213.609243)"><g><path d="M 3.890625 -7.21875 C 4.535156 -7.21875 5.085938 -7.054688 5.546875 -6.734375 C 6.003906 -6.410156 6.347656 -5.972656 6.578125 -5.421875 C 6.816406 -4.878906 6.9375 -4.273438 6.9375 -3.609375 C 6.9375 -2.929688 6.816406 -2.316406 6.578125 -1.765625 C 6.347656 -1.222656 6.003906 -0.789062 5.546875 -0.46875 C 5.085938 -0.15625 4.535156 0 3.890625 0 L 1.34375 0 C 1.207031 0 1.09375 -0.046875 1 -0.140625 C 0.90625 -0.234375 0.859375 -0.351562 0.859375 -0.5 L 0.859375 -6.71875 C 0.859375 -6.863281 0.90625 -6.984375 1 -7.078125 C 1.09375 -7.171875 1.207031 -7.21875 1.34375 -7.21875 Z M 3.78125 -0.953125 C 4.488281 -0.953125 5.015625 -1.195312 5.359375 -1.6875 C 5.710938 -2.1875 5.890625 -2.828125 5.890625 -3.609375 C 5.890625 -4.378906 5.710938 -5.015625 5.359375 -5.515625 C 5.003906 -6.015625 4.476562 -6.265625 3.78125 -6.265625 L 1.875 -6.265625 L 1.875 -0.953125 Z M 3.78125 -0.953125 "/></g></g></g><g fill="#000000" fill-opacity="1"><g transform="translate(144.446712, 213.609243)"><g><path d="M 7.421875 -3.609375 C 7.421875 -2.910156 7.269531 -2.28125 6.96875 -1.71875 C 6.664062 -1.15625 6.25 -0.707031 5.71875 -0.375 C 5.1875 -0.0507812 4.585938 0.109375 3.921875 0.109375 C 3.253906 0.109375 2.65625 -0.0507812 2.125 -0.375 C 1.601562 -0.707031 1.191406 -1.15625 0.890625 -1.71875 C 0.585938 -2.28125 0.4375 -2.910156 0.4375 -3.609375 C 0.4375 -4.304688 0.585938 -4.9375 0.890625 -5.5 C 1.191406 -6.0625 1.601562 -6.503906 2.125 -6.828125 C 2.65625 -7.160156 3.253906 -7.328125 3.921875 -7.328125 C 4.585938 -7.328125 5.1875 -7.160156 5.71875 -6.828125 C 6.25 -6.503906 6.664062 -6.0625 6.96875 -5.5 C 7.269531 -4.9375 7.421875 -4.304688 7.421875 -3.609375 Z M 6.359375 -3.609375 C 6.359375 -4.128906 6.253906 -4.59375 6.046875 -5 C 5.835938 -5.414062 5.546875 -5.742188 5.171875 -5.984375 C 4.804688 -6.222656 4.390625 -6.34375 3.921875 -6.34375 C 3.460938 -6.34375 3.046875 -6.222656 2.671875 -5.984375 C 2.304688 -5.753906 2.019531 -5.429688 1.8125 -5.015625 C 1.601562 -4.597656 1.5 -4.128906 1.5 -3.609375 C 1.5 -3.097656 1.601562 -2.632812 1.8125 -2.21875 C 2.019531 -1.800781 2.304688 -1.472656 2.671875 -1.234375 C 3.046875 -0.992188 3.460938 -0.875 3.921875 -0.875 C 4.390625 -0.875 4.804688 -0.992188 5.171875 -1.234375 C 5.546875 -1.472656 5.835938 -1.800781 6.046875 -2.21875 C 6.253906 -2.632812 6.359375 -3.097656 6.359375 -3.609375 Z M 6.359375 -3.609375 "/></g></g></g><g fill="#000000" fill-opacity="1"><g transform="translate(159.016105, 213.609243)"><g><path d="M 3.75 -7.21875 C 4.113281 -7.21875 4.445312 -7.117188 4.75 -6.921875 C 5.0625 -6.722656 5.304688 -6.457031 5.484375 -6.125 C 5.671875 -5.789062 5.765625 -5.421875 5.765625 -5.015625 C 5.765625 -4.609375 5.671875 -4.234375 5.484375 -3.890625 C 5.304688 -3.546875 5.0625 -3.273438 4.75 -3.078125 C 4.445312 -2.878906 4.113281 -2.78125 3.75 -2.78125 L 1.8125 -2.78125 L 1.8125 -0.5 C 1.8125 -0.351562 1.765625 -0.234375 1.671875 -0.140625 C 1.578125 -0.046875 1.460938 0 1.328125 0 C 1.179688 0 1.066406 -0.046875 0.984375 -0.140625 C 0.898438 -0.234375 0.859375 -0.351562 0.859375 -0.5 L 0.859375 -6.71875 C 0.859375 -6.863281 0.90625 -6.984375 1 -7.078125 C 1.09375 -7.171875 1.207031 -7.21875 1.34375 -7.21875 Z M 3.75 -3.71875 C 3.925781 -3.71875 4.09375 -3.773438 4.25 -3.890625 C 4.414062 -4.015625 4.546875 -4.175781 4.640625 -4.375 C 4.734375 -4.570312 4.78125 -4.785156 4.78125 -5.015625 C 4.78125 -5.359375 4.675781 -5.648438 4.46875 -5.890625 C 4.269531 -6.140625 4.03125 -6.265625 3.75 -6.265625 L 1.8125 -6.265625 L 1.8125 -3.71875 Z M 3.75 -3.71875 "/></g></g></g><g fill="#000000" fill-opacity="1"><g transform="translate(171.916777, 213.609243)"><g><path d="M 5.53125 -7.21875 C 5.675781 -7.21875 5.796875 -7.175781 5.890625 -7.09375 C 5.984375 -7.007812 6.03125 -6.894531 6.03125 -6.75 C 6.03125 -6.601562 5.984375 -6.488281 5.890625 -6.40625 C 5.796875 -6.320312 5.675781 -6.28125 5.53125 -6.28125 L 3.703125 -6.28125 L 3.703125 -0.5 C 3.703125 -0.351562 3.648438 -0.234375 3.546875 -0.140625 C 3.453125 -0.046875 3.328125 0 3.171875 0 C 3.023438 0 2.898438 -0.046875 2.796875 -0.140625 C 2.703125 -0.234375 2.65625 -0.351562 2.65625 -0.5 L 2.65625 -6.28125 L 0.828125 -6.28125 C 0.679688 -6.28125 0.5625 -6.320312 0.46875 -6.40625 C 0.375 -6.488281 0.328125 -6.601562 0.328125 -6.75 C 0.328125 -6.894531 0.375 -7.007812 0.46875 -7.09375 C 0.5625 -7.175781 0.679688 -7.21875 0.828125 -7.21875 Z M 5.53125 -7.21875 "/></g></g></g><g fill="#000000" fill-opacity="1"><g transform="translate(184.992566, 213.609243)"><g><path d="M 1.875 -0.5 C 1.875 -0.351562 1.820312 -0.234375 1.71875 -0.140625 C 1.613281 -0.046875 1.492188 0 1.359375 0 C 1.210938 0 1.09375 -0.046875 1 -0.140625 C 0.90625 -0.234375 0.859375 -0.351562 0.859375 -0.5 L 0.859375 -6.71875 C 0.859375 -6.863281 0.90625 -6.984375 1 -7.078125 C 1.09375 -7.171875 1.21875 -7.21875 1.375 -7.21875 C 1.507812 -7.21875 1.625 -7.171875 1.71875 -7.078125 C 1.820312 -6.984375 1.875 -6.863281 1.875 -6.71875 Z M 1.875 -0.5 "/></g></g></g><g fill="#000000" fill-opacity="1"><g transform="translate(194.44249, 213.609243)"><g><path d="M 7.421875 -3.609375 C 7.421875 -2.910156 7.269531 -2.28125 6.96875 -1.71875 C 6.664062 -1.15625 6.25 -0.707031 5.71875 -0.375 C 5.1875 -0.0507812 4.585938 0.109375 3.921875 0.109375 C 3.253906 0.109375 2.65625 -0.0507812 2.125 -0.375 C 1.601562 -0.707031 1.191406 -1.15625 0.890625 -1.71875 C 0.585938 -2.28125 0.4375 -2.910156 0.4375 -3.609375 C 0.4375 -4.304688 0.585938 -4.9375 0.890625 -5.5 C 1.191406 -6.0625 1.601562 -6.503906 2.125 -6.828125 C 2.65625 -7.160156 3.253906 -7.328125 3.921875 -7.328125 C 4.585938 -7.328125 5.1875 -7.160156 5.71875 -6.828125 C 6.25 -6.503906 6.664062 -6.0625 6.96875 -5.5 C 7.269531 -4.9375 7.421875 -4.304688 7.421875 -3.609375 Z M 6.359375 -3.609375 C 6.359375 -4.128906 6.253906 -4.59375 6.046875 -5 C 5.835938 -5.414062 5.546875 -5.742188 5.171875 -5.984375 C 4.804688 -6.222656 4.390625 -6.34375 3.921875 -6.34375 C 3.460938 -6.34375 3.046875 -6.222656 2.671875 -5.984375 C 2.304688 -5.753906 2.019531 -5.429688 1.8125 -5.015625 C 1.601562 -4.597656 1.5 -4.128906 1.5 -3.609375 C 1.5 -3.097656 1.601562 -2.632812 1.8125 -2.21875 C 2.019531 -1.800781 2.304688 -1.472656 2.671875 -1.234375 C 3.046875 -0.992188 3.460938 -0.875 3.921875 -0.875 C 4.390625 -0.875 4.804688 -0.992188 5.171875 -1.234375 C 5.546875 -1.472656 5.835938 -1.800781 6.046875 -2.21875 C 6.253906 -2.632812 6.359375 -3.097656 6.359375 -3.609375 Z M 6.359375 -3.609375 "/></g></g></g><g fill="#000000" fill-opacity="1"><g transform="translate(209.011883, 213.609243)"><g><path d="M 6.25 -7.21875 C 6.382812 -7.21875 6.488281 -7.175781 6.5625 -7.09375 C 6.644531 -7.007812 6.6875 -6.898438 6.6875 -6.765625 L 6.6875 -0.5 C 6.6875 -0.351562 6.640625 -0.234375 6.546875 -0.140625 C 6.460938 -0.046875 6.347656 0 6.203125 0 C 6.117188 0 6.039062 -0.0078125 5.96875 -0.03125 C 5.90625 -0.0625 5.851562 -0.0976562 5.8125 -0.140625 L 1.75 -5.421875 L 1.75 -0.453125 C 1.75 -0.328125 1.707031 -0.21875 1.625 -0.125 C 1.539062 -0.0390625 1.429688 0 1.296875 0 C 1.171875 0 1.066406 -0.0390625 0.984375 -0.125 C 0.898438 -0.21875 0.859375 -0.328125 0.859375 -0.453125 L 0.859375 -6.71875 C 0.859375 -6.863281 0.90625 -6.984375 1 -7.078125 C 1.09375 -7.171875 1.207031 -7.21875 1.34375 -7.21875 C 1.425781 -7.21875 1.503906 -7.203125 1.578125 -7.171875 C 1.648438 -7.140625 1.707031 -7.097656 1.75 -7.046875 L 5.796875 -1.75 L 5.796875 -6.765625 C 5.796875 -6.898438 5.835938 -7.007812 5.921875 -7.09375 C 6.003906 -7.175781 6.113281 -7.21875 6.25 -7.21875 Z M 6.25 -7.21875 "/></g></g></g><g fill="#000000" fill-opacity="1"><g transform="translate(223.272262, 213.609243)"><g/></g></g><g fill="#000000" fill-opacity="1"><g transform="translate(232.845793, 213.609243)"><g><path d="M 3.75 -7.21875 C 4.113281 -7.21875 4.445312 -7.117188 4.75 -6.921875 C 5.0625 -6.722656 5.304688 -6.457031 5.484375 -6.125 C 5.671875 -5.789062 5.765625 -5.421875 5.765625 -5.015625 C 5.765625 -4.609375 5.671875 -4.234375 5.484375 -3.890625 C 5.304688 -3.546875 5.0625 -3.273438 4.75 -3.078125 C 4.445312 -2.878906 4.113281 -2.78125 3.75 -2.78125 L 1.8125 -2.78125 L 1.8125 -0.5 C 1.8125 -0.351562 1.765625 -0.234375 1.671875 -0.140625 C 1.578125 -0.046875 1.460938 0 1.328125 0 C 1.179688 0 1.066406 -0.046875 0.984375 -0.140625 C 0.898438 -0.234375 0.859375 -0.351562 0.859375 -0.5 L 0.859375 -6.71875 C 0.859375 -6.863281 0.90625 -6.984375 1 -7.078125 C 1.09375 -7.171875 1.207031 -7.21875 1.34375 -7.21875 Z M 3.75 -3.71875 C 3.925781 -3.71875 4.09375 -3.773438 4.25 -3.890625 C 4.414062 -4.015625 4.546875 -4.175781 4.640625 -4.375 C 4.734375 -4.570312 4.78125 -4.785156 4.78125 -5.015625 C 4.78125 -5.359375 4.675781 -5.648438 4.46875 -5.890625 C 4.269531 -6.140625 4.03125 -6.265625 3.75 -6.265625 L 1.8125 -6.265625 L 1.8125 -3.71875 Z M 3.75 -3.71875 "/></g></g></g><g fill="#000000" fill-opacity="1"><g transform="translate(245.746465, 213.609243)"><g><path d="M 7.421875 -3.609375 C 7.421875 -2.910156 7.269531 -2.28125 6.96875 -1.71875 C 6.664062 -1.15625 6.25 -0.707031 5.71875 -0.375 C 5.1875 -0.0507812 4.585938 0.109375 3.921875 0.109375 C 3.253906 0.109375 2.65625 -0.0507812 2.125 -0.375 C 1.601562 -0.707031 1.191406 -1.15625 0.890625 -1.71875 C 0.585938 -2.28125 0.4375 -2.910156 0.4375 -3.609375 C 0.4375 -4.304688 0.585938 -4.9375 0.890625 -5.5 C 1.191406 -6.0625 1.601562 -6.503906 2.125 -6.828125 C 2.65625 -7.160156 3.253906 -7.328125 3.921875 -7.328125 C 4.585938 -7.328125 5.1875 -7.160156 5.71875 -6.828125 C 6.25 -6.503906 6.664062 -6.0625 6.96875 -5.5 C 7.269531 -4.9375 7.421875 -4.304688 7.421875 -3.609375 Z M 6.359375 -3.609375 C 6.359375 -4.128906 6.253906 -4.59375 6.046875 -5 C 5.835938 -5.414062 5.546875 -5.742188 5.171875 -5.984375 C 4.804688 -6.222656 4.390625 -6.34375 3.921875 -6.34375 C 3.460938 -6.34375 3.046875 -6.222656 2.671875 -5.984375 C 2.304688 -5.753906 2.019531 -5.429688 1.8125 -5.015625 C 1.601562 -4.597656 1.5 -4.128906 1.5 -3.609375 C 1.5 -3.097656 1.601562 -2.632812 1.8125 -2.21875 C 2.019531 -1.800781 2.304688 -1.472656 2.671875 -1.234375 C 3.046875 -0.992188 3.460938 -0.875 3.921875 -0.875 C 4.390625 -0.875 4.804688 -0.992188 5.171875 -1.234375 C 5.546875 -1.472656 5.835938 -1.800781 6.046875 -2.21875 C 6.253906 -2.632812 6.359375 -3.097656 6.359375 -3.609375 Z M 6.359375 -3.609375 "/></g></g></g><g fill="#000000" fill-opacity="1"><g transform="translate(260.315858, 213.609243)"><g><path d="M 6.359375 -0.828125 C 6.421875 -0.773438 6.472656 -0.710938 6.515625 -0.640625 C 6.554688 -0.566406 6.578125 -0.492188 6.578125 -0.421875 C 6.578125 -0.273438 6.53125 -0.164062 6.4375 -0.09375 C 6.34375 -0.03125 6.234375 0 6.109375 0 C 5.972656 0 5.863281 -0.0234375 5.78125 -0.078125 C 5.570312 -0.203125 5.398438 -0.394531 5.265625 -0.65625 C 5.140625 -0.914062 5.078125 -1.300781 5.078125 -1.8125 C 5.078125 -2.15625 4.972656 -2.40625 4.765625 -2.5625 C 4.554688 -2.726562 4.285156 -2.8125 3.953125 -2.8125 L 1.875 -2.8125 L 1.875 -0.5 C 1.875 -0.351562 1.832031 -0.234375 1.75 -0.140625 C 1.664062 -0.046875 1.5625 0 1.4375 0 C 1.28125 0 1.144531 -0.046875 1.03125 -0.140625 C 0.914062 -0.234375 0.859375 -0.351562 0.859375 -0.5 L 0.859375 -6.71875 C 0.859375 -6.863281 0.90625 -6.984375 1 -7.078125 C 1.09375 -7.171875 1.207031 -7.21875 1.34375 -7.21875 L 4.25 -7.21875 C 4.625 -7.21875 4.960938 -7.125 5.265625 -6.9375 C 5.578125 -6.757812 5.828125 -6.507812 6.015625 -6.1875 C 6.203125 -5.875 6.296875 -5.515625 6.296875 -5.109375 C 6.296875 -4.722656 6.191406 -4.363281 5.984375 -4.03125 C 5.773438 -3.695312 5.507812 -3.453125 5.1875 -3.296875 C 5.4375 -3.160156 5.632812 -2.972656 5.78125 -2.734375 C 5.9375 -2.503906 6.019531 -2.234375 6.03125 -1.921875 C 6.0625 -1.535156 6.09375 -1.269531 6.125 -1.125 C 6.15625 -0.988281 6.234375 -0.890625 6.359375 -0.828125 Z M 4.234375 -3.671875 C 4.398438 -3.679688 4.5625 -3.75 4.71875 -3.875 C 4.875 -4 5 -4.164062 5.09375 -4.375 C 5.1875 -4.582031 5.234375 -4.816406 5.234375 -5.078125 C 5.234375 -5.410156 5.128906 -5.691406 4.921875 -5.921875 C 4.722656 -6.148438 4.484375 -6.265625 4.203125 -6.265625 L 1.875 -6.265625 L 1.875 -3.671875 Z M 4.234375 -3.671875 "/></g></g></g><g fill="#000000" fill-opacity="1"><g transform="translate(274.040607, 213.609243)"><g><path d="M 5.53125 -7.21875 C 5.675781 -7.21875 5.796875 -7.175781 5.890625 -7.09375 C 5.984375 -7.007812 6.03125 -6.894531 6.03125 -6.75 C 6.03125 -6.601562 5.984375 -6.488281 5.890625 -6.40625 C 5.796875 -6.320312 5.675781 -6.28125 5.53125 -6.28125 L 3.703125 -6.28125 L 3.703125 -0.5 C 3.703125 -0.351562 3.648438 -0.234375 3.546875 -0.140625 C 3.453125 -0.046875 3.328125 0 3.171875 0 C 3.023438 0 2.898438 -0.046875 2.796875 -0.140625 C 2.703125 -0.234375 2.65625 -0.351562 2.65625 -0.5 L 2.65625 -6.28125 L 0.828125 -6.28125 C 0.679688 -6.28125 0.5625 -6.320312 0.46875 -6.40625 C 0.375 -6.488281 0.328125 -6.601562 0.328125 -6.75 C 0.328125 -6.894531 0.375 -7.007812 0.46875 -7.09375 C 0.5625 -7.175781 0.679688 -7.21875 0.828125 -7.21875 Z M 5.53125 -7.21875 "/></g></g></g><g fill="#000000" fill-opacity="1"><g transform="translate(287.116396, 213.609243)"><g><path d="M 6.40625 -0.640625 C 6.425781 -0.578125 6.4375 -0.507812 6.4375 -0.4375 C 6.4375 -0.300781 6.390625 -0.1875 6.296875 -0.09375 C 6.203125 -0.0078125 6.09375 0.03125 5.96875 0.03125 C 5.875 0.03125 5.785156 0.00390625 5.703125 -0.046875 C 5.628906 -0.109375 5.566406 -0.191406 5.515625 -0.296875 L 4.875 -1.8125 L 1.6875 -1.8125 L 1.0625 -0.28125 C 1.03125 -0.1875 0.972656 -0.109375 0.890625 -0.046875 C 0.816406 0.00390625 0.726562 0.03125 0.625 0.03125 C 0.476562 0.03125 0.367188 -0.00390625 0.296875 -0.078125 C 0.222656 -0.160156 0.1875 -0.265625 0.1875 -0.390625 C 0.1875 -0.421875 0.191406 -0.476562 0.203125 -0.5625 L 2.84375 -6.9375 C 2.882812 -7.039062 2.945312 -7.117188 3.03125 -7.171875 C 3.125 -7.234375 3.222656 -7.257812 3.328125 -7.25 C 3.429688 -7.25 3.523438 -7.21875 3.609375 -7.15625 C 3.691406 -7.101562 3.75 -7.03125 3.78125 -6.9375 Z M 2.078125 -2.75 L 4.484375 -2.75 L 3.28125 -5.640625 Z M 2.078125 -2.75 "/></g></g></g><g fill="#000000" fill-opacity="1"><g transform="translate(300.449678, 213.609243)"><g><path d="M 4.84375 -0.953125 C 4.976562 -0.953125 5.09375 -0.90625 5.1875 -0.8125 C 5.28125 -0.726562 5.328125 -0.613281 5.328125 -0.46875 C 5.328125 -0.332031 5.28125 -0.21875 5.1875 -0.125 C 5.09375 -0.0390625 4.976562 0 4.84375 0 L 1.34375 0 C 1.207031 0 1.09375 -0.046875 1 -0.140625 C 0.90625 -0.234375 0.859375 -0.351562 0.859375 -0.5 L 0.859375 -6.71875 C 0.859375 -6.863281 0.90625 -6.984375 1 -7.078125 C 1.09375 -7.171875 1.21875 -7.21875 1.375 -7.21875 C 1.507812 -7.21875 1.625 -7.171875 1.71875 -7.078125 C 1.820312 -6.984375 1.875 -6.863281 1.875 -6.71875 L 1.875 -0.953125 Z M 4.84375 -0.953125 "/></g></g></g></svg>