<svg width="446" height="387" viewBox="0 0 446 387" fill="none" xmlns="http://www.w3.org/2000/svg">
<foreignObject x="-80" y="-80" width="606" height="547"><div xmlns="http://www.w3.org/1999/xhtml" style="backdrop-filter:blur(40px);clip-path:url(#bgblur_0_1746_7939_clip_path);height:100%;width:100%"></div></foreignObject><g data-figma-bg-blur-radius="80">
<rect x="0.5" y="0.5" width="445" height="386" rx="32" fill="#F9F9F9" fill-opacity="0.1"/>
<rect x="0.5" y="0.5" width="445" height="386" rx="32" stroke="#F9F9F9"/>
<g clip-path="url(#clip1_1746_7939)">
<path d="M310.622 306.5C340.931 306.5 365.5 301.811 365.5 296.028C365.5 290.244 340.931 285.555 310.622 285.555C280.314 285.555 255.744 290.244 255.744 296.028C255.744 301.811 280.314 306.5 310.622 306.5Z" fill="#868686"/>
<path d="M97.2828 212.258C97.6098 212.962 97.956 213.673 98.3113 214.372L97.5498 214.702C97.1905 213.996 96.8407 213.277 96.5098 212.565L97.2828 212.258Z" fill="#E6E6E6"/>
<path d="M233.097 155.96C233.578 156.906 234.039 157.869 234.469 158.823L233.692 159.121C233.049 157.692 232.337 156.252 231.586 154.858L232.34 154.513C232.597 154.991 232.85 155.473 233.097 155.96ZM229.9 150.345L229.174 150.737C228.322 149.392 227.41 148.06 226.464 146.778L227.159 146.341C228.116 147.638 229.038 148.985 229.9 150.345ZM236.278 163.256C236.825 164.748 237.322 166.274 237.755 167.792L236.941 167.99C236.513 166.49 236.022 164.981 235.481 163.505L236.278 163.256ZM224.127 142.52L223.466 143C222.424 141.778 221.323 140.574 220.193 139.421L220.816 138.9C221.96 140.066 223.074 141.283 224.127 142.52ZM238.89 172.413C239.209 173.957 239.474 175.532 239.678 177.094L238.843 177.187C238.641 175.642 238.379 174.085 238.064 172.558L238.89 172.413ZM217.243 135.5L216.66 136.06C215.446 134.983 214.177 133.931 212.889 132.935L213.429 132.339C214.732 133.347 216.015 134.41 217.243 135.5ZM240.114 181.822C240.2 183.397 240.227 184.992 240.195 186.565L239.354 186.55C239.386 184.996 239.359 183.418 239.274 181.861L240.114 181.822ZM209.388 129.427L208.893 130.055C207.53 129.142 206.116 128.26 204.691 127.436L205.138 126.777C206.579 127.611 208.009 128.503 209.388 129.427ZM239.923 191.3C239.774 192.87 239.565 194.453 239.3 196.006L238.469 195.885C238.731 194.35 238.938 192.785 239.086 191.232L239.923 191.3ZM200.701 124.402L200.304 125.087C198.819 124.353 197.288 123.657 195.753 123.019L196.098 122.311C197.651 122.956 199.199 123.66 200.701 124.402ZM238.33 200.661C237.951 202.194 237.51 203.735 237.019 205.243L236.213 205.019C236.699 203.529 237.135 202.004 237.51 200.488L238.33 200.661ZM191.351 120.513L191.058 121.242C189.479 120.701 187.859 120.204 186.243 119.764L186.481 119.019C188.115 119.464 189.753 119.967 191.351 120.513ZM235.372 209.731C234.771 211.203 234.107 212.675 233.399 214.104L232.634 213.782C233.334 212.368 233.99 210.913 234.585 209.457L235.372 209.731ZM181.511 117.834L181.328 118.592C179.685 118.255 178.006 117.965 176.339 117.732L176.465 116.964C178.151 117.2 179.849 117.493 181.511 117.834ZM231.109 218.343C230.297 219.726 229.422 221.099 228.511 222.426L227.8 222.01C228.702 220.698 229.566 219.34 230.37 217.972L231.109 218.343ZM171.364 116.416L171.296 117.19C169.615 117.062 167.909 116.988 166.223 116.968L166.234 116.191C167.939 116.212 169.665 116.287 171.364 116.416ZM225.617 226.335C224.609 227.601 223.54 228.851 222.441 230.05L221.799 229.548C222.886 228.363 223.943 227.127 224.94 225.875L225.617 226.335ZM161.099 116.293L161.146 117.069C159.462 117.156 157.76 117.299 156.086 117.494L155.981 116.723C157.674 116.526 159.396 116.382 161.099 116.293ZM218.997 233.553C217.809 234.681 216.563 235.785 215.294 236.834L214.733 236.255C215.987 235.218 217.219 234.127 218.394 233.012L218.997 233.553ZM150.915 117.477L151.077 118.24C149.424 118.54 147.762 118.898 146.137 119.302L145.918 118.552C147.562 118.143 149.243 117.782 150.915 117.477ZM211.355 239.87C210.011 240.835 208.613 241.77 207.199 242.648L206.73 242.004C208.127 241.135 209.51 240.211 210.838 239.257L211.355 239.87ZM141.013 119.941L141.287 120.676C139.697 121.182 138.104 121.746 136.55 122.352L136.223 121.636C137.793 121.023 139.405 120.453 141.013 119.941ZM202.847 245.156C201.374 245.942 199.851 246.692 198.32 247.385L197.95 246.688C199.464 246.002 200.97 245.26 202.426 244.484L202.847 245.156ZM131.946 124.321C130.44 125.022 128.943 125.779 127.496 126.571L127.068 125.903C128.531 125.102 130.045 124.337 131.567 123.627L131.946 124.321ZM123.223 129.096C121.835 129.98 120.464 130.919 119.148 131.886L118.625 131.278C119.955 130.3 121.341 129.351 122.746 128.456L123.223 129.096ZM115.292 134.929C114.051 135.978 112.834 137.081 111.676 138.206L111.066 137.671C112.238 136.533 113.469 135.418 114.724 134.356L115.292 134.929ZM108.312 141.707C107.238 142.906 106.196 144.153 105.216 145.414L104.532 144.962C105.524 143.686 106.577 142.425 107.664 141.212L108.312 141.707ZM102.401 149.31C101.514 150.634 100.667 152.002 99.8818 153.374L99.1382 153.012C99.9316 151.624 100.789 150.241 101.686 148.901L102.401 149.31ZM97.6682 157.59C96.9852 159.011 96.3465 160.472 95.7697 161.934L94.9794 161.668C95.5627 160.19 96.2086 158.712 96.899 157.274L97.6682 157.59ZM94.1965 166.389C93.7286 167.885 93.3108 169.414 92.955 170.933L92.133 170.769C92.4927 169.233 92.915 167.686 93.3883 166.173L94.1965 166.389ZM92.0517 175.544C91.809 177.087 91.621 178.654 91.4931 180.204L90.6542 180.145C90.7837 178.578 90.9737 176.992 91.2194 175.432L92.0517 175.544ZM91.2822 184.888C91.2699 186.446 91.3166 188.023 91.4207 189.575L90.5812 189.623C90.4759 188.053 90.4287 186.458 90.4408 184.882L91.2822 184.888ZM91.9095 194.243C92.1295 195.785 92.4107 197.34 92.7453 198.864L91.9208 199.018C91.5823 197.476 91.2979 195.904 91.0754 194.345L91.9095 194.243ZM93.9244 203.42C94.3717 204.918 94.8814 206.422 95.4396 207.891L94.6456 208.148C94.0812 206.662 93.5657 205.141 93.1133 203.627L93.9244 203.42Z" fill="#7F65F0"/>
<path d="M193.207 248.652L193.525 249.371C192.738 249.667 191.942 249.952 191.159 250.219L190.868 249.49C191.642 249.227 192.43 248.945 193.207 248.652Z" fill="#E6E6E6"/>
<path d="M232.749 216.141C232.665 216.014 230.685 212.962 229.999 206.624C229.369 200.809 229.774 191.008 235.279 177.336C245.708 151.435 232.875 130.537 232.744 130.329L233.377 129.99C233.411 130.043 236.722 135.371 238.678 143.855C241.263 155.104 240.321 166.799 235.965 177.572C225.554 203.428 233.294 215.668 233.373 215.789L232.749 216.141Z" fill="#3F3D56"/>
<path d="M228.671 128.808C231.297 128.808 233.427 126.842 233.427 124.417C233.427 121.991 231.297 120.025 228.671 120.025C226.044 120.025 223.915 121.991 223.915 124.417C223.915 126.842 226.044 128.808 228.671 128.808Z" fill="#F0CF65"/>
<path d="M243.671 145.023C246.297 145.023 248.427 143.057 248.427 140.631C248.427 138.206 246.297 136.24 243.671 136.24C241.044 136.24 238.915 138.206 238.915 140.631C238.915 143.057 241.044 145.023 243.671 145.023Z" fill="#7F65F0"/>
<path d="M233.427 155.834C236.054 155.834 238.183 153.867 238.183 151.442C238.183 149.016 236.054 147.05 233.427 147.05C230.8 147.05 228.671 149.016 228.671 151.442C228.671 153.867 230.8 155.834 233.427 155.834Z" fill="#F0CF65"/>
<path d="M245.866 164.955C248.493 164.955 250.622 162.988 250.622 160.563C250.622 158.138 248.493 156.171 245.866 156.171C243.239 156.171 241.11 158.138 241.11 160.563C241.11 162.988 243.239 164.955 245.866 164.955Z" fill="#F0CF65"/>
<path d="M229.768 179.143C232.395 179.143 234.524 177.176 234.524 174.751C234.524 172.326 232.395 170.359 229.768 170.359C227.142 170.359 225.012 172.326 225.012 174.751C225.012 177.176 227.142 179.143 229.768 179.143Z" fill="#7F65F0"/>
<path d="M235.622 216.303C235.622 216.303 230.866 205.492 245.134 197.385L235.622 216.303Z" fill="#3F3D56"/>
<path d="M229.773 216.107C229.773 216.107 227.608 204.611 210.855 204.71L229.773 216.107Z" fill="#3F3D56"/>
<path d="M198.375 135.515C198.204 135.477 198.023 135.498 197.868 135.573C197.712 135.649 197.591 135.774 197.528 135.926C197.465 136.077 197.463 136.245 197.524 136.397C197.585 136.55 197.703 136.677 197.857 136.755C200.34 138.034 202.524 139.755 204.283 141.817C212.485 151.43 209.621 166.144 197.886 174.681C192.675 178.539 186.177 180.612 179.499 180.547C187.378 182.597 196.679 180.984 204.175 175.532C215.91 166.995 218.774 152.281 210.571 142.667C207.49 139.087 203.194 136.567 198.375 135.515Z" fill="#3F3D56"/>
<path d="M204.283 141.962C212.485 151.576 209.621 166.29 197.886 174.827C193.586 177.99 188.41 179.974 182.947 180.551C189.471 180.515 195.79 178.447 200.882 174.681C212.617 166.145 215.481 151.431 207.279 141.817C204.952 139.097 201.902 136.98 198.425 135.673L198.371 135.661C198.2 135.624 198.021 135.645 197.866 135.721C197.711 135.797 197.591 135.923 197.528 136.074C197.466 136.226 197.465 136.393 197.525 136.545C197.586 136.697 197.705 136.823 197.859 136.901C200.341 138.18 202.524 139.901 204.283 141.962Z" fill="#F0CF65"/>
<path d="M167.905 127.119L172.746 134.862L177.588 142.606H167.905H158.221L163.063 134.862L167.905 127.119Z" fill="#F0CF65"/>
<path d="M185.564 127.119L190.406 134.862L195.248 142.606H185.564H175.881L180.723 134.862L185.564 127.119Z" fill="#F0CF65"/>
<path d="M167.345 131.158L170.332 135.935L173.319 140.713H167.345H161.37L164.357 135.935L167.345 131.158Z" fill="#3F3D56"/>
<path d="M185.494 131.158L188.481 135.935L191.468 140.713H185.494H179.52L182.507 135.935L185.494 131.158Z" fill="#3F3D56"/>
<path d="M210.793 182.208C210.793 189.365 208.149 196.309 203.298 201.892C198.447 207.474 191.678 211.362 184.11 212.912C176.543 214.462 168.628 213.582 161.676 210.418C154.723 207.253 149.147 201.994 145.869 195.507C142.591 189.021 141.807 181.696 143.647 174.743C145.488 167.79 149.841 161.625 155.989 157.265C162.137 152.906 169.712 150.613 177.462 150.766C185.212 150.92 192.673 153.509 198.614 158.107C202.427 161.059 205.494 164.747 207.598 168.91C209.702 173.074 210.793 177.613 210.793 182.208Z" fill="#3F3D56"/>
<path opacity="0.1" d="M198.614 158.107C195.765 164.978 187.047 169.978 176.735 169.978C166.423 169.978 157.705 164.978 154.855 158.107C160.987 153.361 168.733 150.759 176.735 150.759C184.736 150.759 192.482 153.361 198.614 158.107Z" fill="black"/>
<path d="M176.735 167.502C189.362 167.502 199.598 160.006 199.598 150.759C199.598 141.512 189.362 134.016 176.735 134.016C164.108 134.016 153.872 141.512 153.872 150.759C153.872 160.006 164.108 167.502 176.735 167.502Z" fill="#3F3D56"/>
<path d="M166.013 152.361C168.364 152.361 170.27 150.601 170.27 148.43C170.27 146.259 168.364 144.499 166.013 144.499C163.661 144.499 161.755 146.259 161.755 148.43C161.755 150.601 163.661 152.361 166.013 152.361Z" fill="white"/>
<path d="M187.457 152.361C189.808 152.361 191.714 150.601 191.714 148.43C191.714 146.259 189.808 144.499 187.457 144.499C185.105 144.499 183.199 146.259 183.199 148.43C183.199 150.601 185.105 152.361 187.457 152.361Z" fill="white"/>
<path d="M166.013 150.905C167.493 150.905 168.693 149.797 168.693 148.43C168.693 147.063 167.493 145.955 166.013 145.955C164.532 145.955 163.332 147.063 163.332 148.43C163.332 149.797 164.532 150.905 166.013 150.905Z" fill="#3F3D56"/>
<path d="M187.457 150.905C188.937 150.905 190.137 149.797 190.137 148.43C190.137 147.063 188.937 145.955 187.457 145.955C185.976 145.955 184.776 147.063 184.776 148.43C184.776 149.797 185.976 150.905 187.457 150.905Z" fill="#3F3D56"/>
<path d="M171.953 154.689C172.389 154.689 172.742 154.363 172.742 153.961C172.742 153.559 172.389 153.233 171.953 153.233C171.518 153.233 171.165 153.559 171.165 153.961C171.165 154.363 171.518 154.689 171.953 154.689Z" fill="#F0CF65"/>
<path d="M171.651 153.776C170.104 154.424 169.08 155.744 167.455 156.312C165.8 156.888 163.98 156.919 162.302 156.4C162.012 156.312 161.888 156.733 162.176 156.821C163.856 157.338 165.673 157.334 167.351 156.809C168.144 156.56 168.888 156.195 169.556 155.727C170.331 155.184 170.991 154.53 171.889 154.153C172.166 154.037 171.926 153.661 171.651 153.776Z" fill="#F0CF65"/>
<path d="M172.266 153.591C171.476 153.759 170.714 154.025 170.001 154.382C169.18 154.748 168.295 154.977 167.388 155.06C165.667 155.198 163.945 154.796 162.502 153.918C162.246 153.764 162.009 154.142 162.263 154.295C163.708 155.171 165.418 155.598 167.144 155.513C167.981 155.473 168.806 155.308 169.587 155.024C170.527 154.678 171.381 154.173 172.392 154.012C172.691 153.964 172.565 153.543 172.266 153.591Z" fill="#F0CF65"/>
<path d="M171.844 153.307C170.64 154.356 170.139 155.872 168.862 156.887C167.488 157.979 165.738 158.586 163.925 158.6C163.864 158.602 163.805 158.626 163.763 158.667C163.72 158.708 163.696 158.762 163.696 158.819C163.696 158.876 163.72 158.93 163.763 158.971C163.805 159.012 163.864 159.035 163.925 159.037C165.68 159.025 167.384 158.489 168.782 157.507C169.413 157.065 169.968 156.537 170.427 155.94C171.022 155.162 171.417 154.28 172.178 153.616C172.4 153.423 172.065 153.114 171.844 153.307Z" fill="#F0CF65"/>
<path d="M180.255 154.689C180.69 154.689 181.043 154.363 181.043 153.961C181.043 153.559 180.69 153.233 180.255 153.233C179.819 153.233 179.466 153.559 179.466 153.961C179.466 154.363 179.819 154.689 180.255 154.689Z" fill="#F0CF65"/>
<path d="M180.319 154.153C181.207 154.526 181.864 155.17 182.628 155.71C183.302 156.185 184.055 156.557 184.857 156.809C186.534 157.335 188.352 157.339 190.032 156.821C190.319 156.733 190.196 156.311 189.906 156.4C188.228 156.919 186.408 156.888 184.753 156.312C183.128 155.744 182.104 154.425 180.557 153.776C180.282 153.661 180.042 154.037 180.319 154.153Z" fill="#F0CF65"/>
<path d="M179.816 154.012C180.787 154.166 181.609 154.639 182.507 154.982C183.321 155.291 184.185 155.47 185.064 155.513C186.79 155.598 188.5 155.171 189.944 154.295C190.198 154.142 189.962 153.764 189.706 153.918C188.264 154.798 186.541 155.2 184.82 155.06C183.913 154.975 183.029 154.746 182.207 154.382C181.494 154.025 180.732 153.759 179.941 153.591C179.644 153.543 179.516 153.964 179.816 154.012Z" fill="#F0CF65"/>
<path d="M180.029 153.616C180.79 154.279 181.185 155.164 181.781 155.94C182.24 156.537 182.795 157.065 183.426 157.507C184.823 158.489 186.527 159.025 188.283 159.037C188.344 159.035 188.402 159.011 188.445 158.971C188.488 158.93 188.511 158.876 188.511 158.819C188.511 158.762 188.488 158.708 188.445 158.667C188.402 158.626 188.344 158.602 188.283 158.6C186.469 158.588 184.719 157.981 183.345 156.887C182.074 155.868 181.568 154.356 180.364 153.307C180.143 153.114 179.807 153.423 180.029 153.616Z" fill="#F0CF65"/>
<path d="M166.013 215.839C169.496 215.839 172.32 214.34 172.32 212.491C172.32 210.641 169.496 209.142 166.013 209.142C162.529 209.142 159.706 210.641 159.706 212.491C159.706 214.34 162.529 215.839 166.013 215.839Z" fill="#3F3D56"/>
<path d="M187.457 215.839C190.94 215.839 193.764 214.34 193.764 212.491C193.764 210.641 190.94 209.142 187.457 209.142C183.973 209.142 181.149 210.641 181.149 212.491C181.149 214.34 183.973 215.839 187.457 215.839Z" fill="#3F3D56"/>
<path d="M176.104 156.583C178.977 156.583 181.307 155.344 181.307 153.817C181.307 152.289 178.977 151.05 176.104 151.05C173.23 151.05 170.9 152.289 170.9 153.817C170.9 155.344 173.23 156.583 176.104 156.583Z" fill="#F0CF65"/>
<path d="M88.5 81H345.061C349.203 81 352.561 84.3579 352.561 88.5V260.326C352.561 264.468 349.203 267.826 345.061 267.826H88.5C84.3579 267.826 81 264.468 81 260.326V88.5C81 84.3579 84.3579 81 88.5 81ZM110.451 114.457C105.757 114.457 101.951 118.263 101.951 122.957V207.627C101.951 212.321 105.757 216.127 110.451 216.127H241.158C245.853 216.127 249.658 212.321 249.658 207.627V122.957C249.658 118.263 245.852 114.457 241.158 114.457H110.451ZM91.1396 82.7061C90.2511 82.3662 89.275 82.2784 88.334 82.4512C87.3929 82.624 86.523 83.0511 85.8369 83.6846C85.1504 84.3185 84.6773 85.1313 84.4854 86.0225C84.2933 86.914 84.3931 87.8379 84.7686 88.6748C85.1437 89.511 85.7761 90.2194 86.5791 90.7148C87.3818 91.21 88.3217 91.4726 89.2803 91.4727C90.5649 91.4727 91.8041 91.0013 92.7236 90.1523C93.6445 89.3021 94.1708 88.14 94.1709 86.9189C94.1709 86.009 93.8783 85.1226 93.3359 84.373C92.7941 83.6243 92.0283 83.046 91.1396 82.7061ZM103.398 82.4512C102.457 82.2783 101.481 82.3663 100.593 82.7061C99.704 83.046 98.9375 83.6241 98.3955 84.373C97.8531 85.1226 97.5605 86.009 97.5605 86.9189C97.5607 88.14 98.087 89.3021 99.0078 90.1523C99.9274 91.0014 101.167 91.4726 102.451 91.4727C103.41 91.4727 104.35 91.2102 105.153 90.7148C105.956 90.2194 106.589 89.511 106.964 88.6748C107.339 87.8379 107.438 86.914 107.246 86.0225C107.054 85.1313 106.581 84.3185 105.895 83.6846C105.209 83.0513 104.339 82.6241 103.398 82.4512ZM115.622 82.3643C114.338 82.3643 113.098 82.8356 112.179 83.6846C111.258 84.5349 110.731 85.6978 110.731 86.9189C110.732 87.8287 111.024 88.7145 111.566 89.4639C112.108 90.2128 112.875 90.7909 113.764 91.1309C114.652 91.4706 115.628 91.5585 116.568 91.3857C117.509 91.2129 118.379 90.7858 119.065 90.1523C119.752 89.5184 120.225 88.7056 120.417 87.8145C120.609 86.923 120.509 85.999 120.134 85.1621C119.759 84.326 119.126 83.6175 118.323 83.1221C117.521 82.6269 116.581 82.3643 115.622 82.3643Z" fill="#FCF5E0" stroke="#868686"/>
<path d="M347.207 83.8784H338.427V84.8919H347.207V83.8784Z" fill="#868686"/>
<path d="M347.207 86.9185H338.427V87.9319H347.207V86.9185Z" fill="#868686"/>
<path d="M347.207 89.959H338.427V90.9724H347.207V89.959Z" fill="#868686"/>
<path d="M338.427 113.268H272.208V116.308H338.427V113.268Z" fill="#868686"/>
<path d="M338.427 123.741H272.208V126.781H338.427V123.741Z" fill="#868686"/>
<path d="M338.427 134.213H272.208V137.253H338.427V134.213Z" fill="#868686"/>
<path d="M338.427 144.686H272.208V147.726H338.427V144.686Z" fill="#868686"/>
<path d="M338.427 155.158H272.208V158.198H338.427V155.158Z" fill="#868686"/>
<path d="M338.427 165.63H272.208V168.67H338.427V165.63Z" fill="#868686"/>
<path d="M338.427 176.103H272.208V179.143H338.427V176.103Z" fill="#868686"/>
<path d="M338.427 186.575H272.208V189.615H338.427V186.575Z" fill="#868686"/>
<path d="M338.427 197.047H272.208V200.087H338.427V197.047Z" fill="#868686"/>
<path d="M338.427 207.52H272.208V210.56H338.427V207.52Z" fill="#868686"/>
<path d="M111.232 226.775C113.656 226.775 115.622 224.96 115.622 222.721C115.622 220.482 113.656 218.667 111.232 218.667C108.807 218.667 106.841 220.482 106.841 222.721C106.841 224.96 108.807 226.775 111.232 226.775Z" fill="#868686"/>
<path d="M126.232 226.775C128.656 226.775 130.622 224.96 130.622 222.721C130.622 220.482 128.656 218.667 126.232 218.667C123.807 218.667 121.841 220.482 121.841 222.721C121.841 224.96 123.807 226.775 126.232 226.775Z" fill="#868686"/>
<path d="M141.232 226.775C143.656 226.775 145.622 224.96 145.622 222.721C145.622 220.482 143.656 218.667 141.232 218.667C138.807 218.667 136.841 220.482 136.841 222.721C136.841 224.96 138.807 226.775 141.232 226.775Z" fill="#868686"/>
<path d="M338.427 242.652H272.208V259.881H338.427V242.652Z" fill="#F0CF65"/>
<path d="M305.119 228.953L305.86 252.887L313.76 280.925C313.76 280.925 312.031 285.712 313.266 286.852C314.5 287.992 320.178 290.043 320.178 290.043L315.488 230.32L305.119 228.953Z" fill="#2F2E41"/>
<path d="M322.271 286.735C322.271 286.735 325.088 292.458 321.144 292.978C317.2 293.498 298.982 294.886 300.109 291.938C301.236 288.99 314.946 286.215 314.946 286.215L322.271 286.735Z" fill="#2F2E41"/>
<path d="M332.769 207.753C332.769 207.753 329.806 222.57 327.831 225.077C325.856 227.585 328.819 245.821 328.819 245.821C328.819 245.821 333.262 272.035 331.287 276.138C329.313 280.241 329.806 278.874 330.053 281.153C330.3 283.433 330.794 285.256 330.053 287.308C329.313 289.359 329.313 289.131 329.066 290.271C328.819 291.411 329.066 297.566 329.066 297.566C329.066 297.566 318.45 300.985 316.722 295.97C316.722 295.97 319.191 292.779 318.45 290.271C317.678 287.748 317.263 285.143 317.216 282.521V277.734L305.86 238.526L303.145 224.393C303.145 224.393 303.885 210.033 306.601 208.665C309.316 207.297 332.769 207.753 332.769 207.753Z" fill="#2F2E41"/>
<path d="M328.325 296.426C328.325 296.426 332.028 303.948 326.844 304.632C321.66 305.316 297.714 307.14 299.195 303.265C300.676 299.389 318.697 295.742 318.697 295.742L328.325 296.426Z" fill="#2F2E41"/>
<path d="M323.632 142.113C329.086 142.113 333.507 138.031 333.507 132.995C333.507 127.959 329.086 123.877 323.632 123.877C318.178 123.877 313.757 127.959 313.757 132.995C313.757 138.031 318.178 142.113 323.632 142.113Z" fill="#FFB9B9"/>
<path d="M330.571 137.024L330.387 148.669L318.28 148.706C318.28 148.706 321.353 139.591 319.977 137.685C318.6 135.779 330.571 137.024 330.571 137.024Z" fill="#FFB9B9"/>
<path d="M312.525 155.097C312.525 155.097 321.166 144.839 327.831 149.17C334.497 153.501 336.965 163.759 336.965 163.759L335.484 192.481C335.484 192.481 331.781 196.584 334.003 199.319C336.225 202.055 337.459 201.371 335.731 203.422C334.003 205.474 332.028 207.07 332.768 207.753C333.509 208.437 332.028 208.893 332.028 208.893L305.86 209.577C305.86 209.577 306.6 208.665 304.379 205.93C302.157 203.194 304.872 199.547 304.379 198.179C303.885 196.812 303.391 198.407 303.144 195.216C302.897 192.025 312.525 155.097 312.525 155.097Z" fill="url(#paint0_linear_1746_7939)"/>
<path d="M314.994 213.908C314.994 213.908 314.5 219.607 310.797 220.518C309.409 220.86 308.367 220.209 307.608 219.26C306.899 218.351 306.501 217.267 306.467 216.147C306.432 215.028 306.762 213.924 307.414 212.98L308.329 211.628L314.994 213.908Z" fill="#FFB9B9"/>
<path d="M337.829 143.585C337.829 143.585 338.076 148.144 337.829 148.828C337.582 149.512 337.336 150.196 337.829 150.88C338.323 151.564 338.076 153.843 337.582 154.071C337.089 154.299 338.57 156.351 338.076 157.718C337.582 159.086 337.089 159.542 336.842 159.998C336.595 160.454 336.197 161.27 336.197 161.27C336.197 161.27 328.942 147.005 323.017 150.424C317.092 153.843 312.402 154.983 312.402 154.983C312.402 154.983 315.611 139.026 337.829 143.585Z" fill="url(#paint1_linear_1746_7939)"/>
<path d="M327.091 154.185C327.091 154.185 334.99 154.869 334.497 164.443C334.003 174.016 335.237 189.061 335.237 189.061C335.237 189.061 321.66 208.209 319.438 209.577C317.216 210.944 316.969 210.716 317.216 211.856C317.463 212.996 317.71 213.908 316.722 214.82C316.139 215.362 315.474 215.822 314.747 216.187C314.747 216.187 306.847 213.68 307.588 211.4C308.329 209.121 311.785 205.474 311.785 205.474C311.785 205.474 317.71 196.584 317.957 195.216C318.203 193.848 318.203 194.076 318.944 193.392C319.685 192.708 321.66 189.973 321.66 188.605V184.274L319.59 161.129C319.496 160.186 319.619 159.236 319.951 158.34C320.283 157.445 320.817 156.624 321.517 155.933C322.692 154.798 324.468 153.894 327.091 154.185Z" fill="url(#paint2_linear_1746_7939)"/>
<path d="M317.263 125.964C316.62 126.128 315.942 126.142 315.291 126.005C314.64 125.867 314.037 125.582 313.535 125.175C312.57 124.329 312.246 122.862 312.932 121.809C313.525 120.899 314.678 120.455 315.776 120.138C318.196 119.442 320.717 119.087 323.252 119.085C324.461 119.085 325.723 119.18 326.757 119.758C327.269 120.043 327.703 120.436 328.209 120.73C329.139 121.272 330.256 121.452 331.278 121.828C332.322 122.22 333.264 122.814 334.038 123.571C334.812 124.328 335.401 125.23 335.765 126.215C335.999 126.883 336.145 127.575 336.201 128.276C336.368 130.195 336 132.122 335.134 133.873C333.756 136.646 331.135 138.978 330.764 142.01C329.353 140.916 328.939 139.081 327.846 137.712C327.032 136.699 325.871 135.971 324.551 135.646C324.182 135.601 323.835 135.458 323.553 135.234C323.363 134.992 323.255 134.703 323.241 134.404L322.563 129.9C322.425 128.983 322.239 127.981 321.477 127.38C320.999 127.051 320.446 126.829 319.86 126.731C318.473 126.413 317.061 126.2 315.637 126.096" fill="#2F2E41"/>
<path opacity="0.1" d="M334.037 192.318L320.178 208.924C320.178 208.924 332.939 199.074 334.037 192.318Z" fill="black"/>
<path opacity="0.1" d="M320.734 173.932L320.866 189.615L312.817 200.763L319.402 188.264L320.734 173.932Z" fill="black"/>
</g>
</g>
<defs>
<clipPath id="bgblur_0_1746_7939_clip_path" transform="translate(80 80)"><rect x="0.5" y="0.5" width="445" height="386" rx="32"/>
</clipPath><linearGradient id="paint0_linear_1746_7939" x1="320.052" y1="148.104" x2="320.052" y2="209.577" gradientUnits="userSpaceOnUse">
<stop stop-color="#F0CF65"/>
<stop offset="1" stop-color="#A15E49"/>
</linearGradient>
<linearGradient id="paint1_linear_1746_7939" x1="325.29" y1="142.766" x2="325.29" y2="161.27" gradientUnits="userSpaceOnUse">
<stop stop-color="#F0CF65"/>
<stop offset="1" stop-color="#A15E49"/>
</linearGradient>
<linearGradient id="paint2_linear_1746_7939" x1="321.388" y1="154.13" x2="321.388" y2="216.187" gradientUnits="userSpaceOnUse">
<stop stop-color="#F0CF65"/>
<stop offset="1" stop-color="#A15E49"/>
</linearGradient>
<clipPath id="clip1_1746_7939">
<rect width="285" height="226" fill="white" transform="translate(80.5 80.5)"/>
</clipPath>
</defs>
</svg>
